<svg width="640" height="640" viewBox="0 0 640 640" fill="none" xmlns="http://www.w3.org/2000/svg">
<g filter="url(#filter0_i_268_269)">
<path fill-rule="evenodd" clip-rule="evenodd" d="M320 640C496.731 640 640 496.731 640 320C640 143.269 496.731 0 320 0C143.269 0 0 143.269 0 320C0 496.731 143.269 640 320 640ZM320 40C165.36 40 40 165.36 40 320C40 474.64 165.36 600 320 600C474.64 600 600 474.64 600 320C600 165.36 474.64 40 320 40Z" fill="url(#paint0_linear_268_269)"/>
</g>
<g filter="url(#filter1_i_268_269)">
<path d="M536 334.059C464.5 321 284.5 258 187.988 150C192.925 211.765 279 326 296.999 336.941C230 369.5 106.291 441.529 103 451C184.038 423.412 344.717 366.588 536 334.059Z" fill="url(#paint1_linear_268_269)"/>
</g>
<defs>
<filter id="filter0_i_268_269" x="0" y="0" width="640" height="644" filterUnits="userSpaceOnUse" color-interpolation-filters="sRGB">
<feFlood flood-opacity="0" result="BackgroundImageFix"/>
<feBlend mode="normal" in="SourceGraphic" in2="BackgroundImageFix" result="shape"/>
<feColorMatrix in="SourceAlpha" type="matrix" values="0 0 0 0 0 0 0 0 0 0 0 0 0 0 0 0 0 0 127 0" result="hardAlpha"/>
<feOffset dy="4"/>
<feGaussianBlur stdDeviation="2"/>
<feComposite in2="hardAlpha" operator="arithmetic" k2="-1" k3="1"/>
<feColorMatrix type="matrix" values="0 0 0 0 0 0 0 0 0 0 0 0 0 0 0 0 0 0 0.25 0"/>
<feBlend mode="normal" in2="shape" result="effect1_innerShadow_268_269"/>
</filter>
<filter id="filter1_i_268_269" x="103" y="150" width="433" height="305" filterUnits="userSpaceOnUse" color-interpolation-filters="sRGB">
<feFlood flood-opacity="0" result="BackgroundImageFix"/>
<feBlend mode="normal" in="SourceGraphic" in2="BackgroundImageFix" result="shape"/>
<feColorMatrix in="SourceAlpha" type="matrix" values="0 0 0 0 0 0 0 0 0 0 0 0 0 0 0 0 0 0 127 0" result="hardAlpha"/>
<feOffset dy="4"/>
<feGaussianBlur stdDeviation="2"/>
<feComposite in2="hardAlpha" operator="arithmetic" k2="-1" k3="1"/>
<feColorMatrix type="matrix" values="0 0 0 0 0 0 0 0 0 0 0 0 0 0 0 0 0 0 0.25 0"/>
<feBlend mode="normal" in2="shape" result="effect1_innerShadow_268_269"/>
</filter>
<linearGradient id="paint0_linear_268_269" x1="-44.4444" y1="291.6" x2="280.131" y2="-159.902" gradientUnits="userSpaceOnUse">
<stop stop-color="#5C2BB1"/>
<stop offset="1" stop-color="#F46D01"/>
</linearGradient>
<linearGradient id="paint1_linear_268_269" x1="72.9306" y1="287.143" x2="201.723" y2="29.4188" gradientUnits="userSpaceOnUse">
<stop stop-color="#5C2BB1"/>
<stop offset="1" stop-color="#F46D01"/>
</linearGradient>
</defs>
</svg>
