<svg width="232" height="242" viewBox="0 0 232 242" fill="none" xmlns="http://www.w3.org/2000/svg">
<g id="travelers">
<g id="Background_Complete">
<g id="Group">
<g id="Group_2">
<g id="Group_3">
<g id="Group_4">
<path id="Vector" d="M35.7619 215.677C36.1647 214.011 35.1095 212.347 33.931 211.147C32.7524 209.947 31.3446 208.874 30.7261 207.281C29.7239 204.702 31.0342 201.346 29.336 199.198C28.337 197.935 26.5561 197.521 25.6685 196.171C25.2031 195.462 25.0486 194.589 24.863 193.752C23.9141 189.485 21.8419 185.495 18.9336 182.335C18.7531 186.142 19.5785 189.995 21.2958 193.359C21.9857 194.711 22.8316 196.029 23.0659 197.541C23.4469 199.997 22.1454 202.537 22.7374 204.946C23.4144 207.703 26.397 209.532 26.5534 212.373C26.6856 214.775 24.6899 216.895 24.8528 219.294C24.9219 220.316 25.3822 221.262 25.8931 222.137C27.6906 225.214 30.3178 227.325 34.2822 227.233L39.1394 227.381L35.7619 215.677Z" fill="#EFEBFF"/>
</g>
</g>
</g>
<g id="Group_5">
<g id="Group_6">
<g id="Group_7">
<g id="Group_8">
<g id="Group_9">
<g id="Group_10">
<path id="Vector_2" d="M40.1226 227.509C40.1226 227.509 40.5861 227.618 41.4594 227.47C41.8941 227.402 42.4291 227.278 43.0351 227.047C43.6374 226.813 44.3227 226.481 44.9779 225.922C45.292 225.632 45.6061 225.275 45.7737 224.803C45.9384 224.333 45.9662 223.818 45.9941 223.288C46.0173 222.759 46.0145 222.207 46.0984 221.649C46.1773 221.091 46.3843 220.541 46.6831 220.016C47.2501 218.964 48.1953 217.965 48.4945 216.539C48.8193 215.136 48.5725 213.621 48.3386 212.099C48.1048 210.582 47.8774 208.926 48.4259 207.34C48.9381 205.753 49.9951 204.317 50.5181 202.527C51.0382 200.721 50.7807 198.782 50.8823 196.868C50.9282 195.906 51.1008 194.945 51.4999 194.052C51.8878 193.153 52.4283 192.304 52.8487 191.357C53.7002 189.443 53.8408 187.28 54.0649 185.159C54.1739 184.09 54.2843 183.011 54.3957 181.92C54.5057 180.824 54.5924 179.733 54.9177 178.677C55.2114 177.614 55.6388 176.585 56.0624 175.536C56.2698 175.008 56.4893 174.48 56.6169 173.895C56.7087 173.297 56.7329 172.738 56.764 172.152C56.8122 170.99 56.7598 169.813 56.6155 168.646C56.4772 167.478 56.2684 166.32 56.1417 165.15C56.1338 165.08 56.126 165.011 56.119 164.948L56.0925 164.714L55.8944 164.819C54.8574 165.369 53.9716 166.183 53.2928 167.136C52.6023 168.083 52.1017 169.15 51.7036 170.233C50.9041 172.415 50.6248 174.697 50.2276 176.876C49.8401 179.055 49.3256 181.198 48.2658 183.014C47.7387 183.919 47.0993 184.747 46.5406 185.63C45.9834 186.507 45.4939 187.47 45.3514 188.524C45.0758 190.669 46.2177 192.544 45.9927 194.443C45.9138 195.386 45.5588 196.27 45.1213 197.077C44.6846 197.889 44.1705 198.642 43.6829 199.4C43.1957 200.157 42.7321 200.925 42.392 201.744C42.0459 202.561 41.858 203.434 41.8092 204.287C41.7002 205.996 41.9415 207.615 41.8297 209.146C41.7392 210.679 41.2311 212.071 40.6539 213.316C40.0734 214.566 39.4261 215.697 38.8846 216.793C38.6123 217.34 38.3613 217.875 38.1571 218.411C37.9409 218.947 37.8365 219.495 37.7395 220.015C37.5859 221.067 37.6068 222.045 37.7195 222.907C37.9404 224.64 38.5673 225.887 39.1292 226.586C39.2582 226.772 39.4071 226.904 39.5245 227.027C39.6391 227.154 39.7523 227.24 39.8447 227.307C40.0252 227.445 40.1226 227.509 40.1226 227.509C40.1439 227.483 39.7217 227.253 39.177 226.544C38.6387 225.841 38.0383 224.604 37.8388 222.89C37.7367 222.038 37.7256 221.072 37.8852 220.04C37.9849 219.53 38.0917 218.993 38.306 218.474C38.5097 217.95 38.7635 217.418 39.0382 216.877C39.5839 215.79 40.2381 214.664 40.8316 213.406C41.4204 212.155 41.9484 210.735 42.0487 209.163C42.1679 207.6 41.9336 205.974 42.0482 204.306C42.0992 203.471 42.283 202.639 42.6203 201.848C42.9525 201.055 43.4096 200.301 43.8968 199.55C44.384 198.798 44.9041 198.041 45.3533 197.212C45.8024 196.389 46.1783 195.469 46.265 194.47C46.4882 192.448 45.3547 190.56 45.6354 188.566C45.7704 187.58 46.2349 186.659 46.7847 185.798C47.3345 184.931 47.9772 184.103 48.5201 183.175C49.6132 181.307 50.1362 179.122 50.5278 176.934C50.9287 174.742 51.2089 172.484 51.994 170.348C52.3847 169.286 52.8747 168.246 53.5419 167.332C54.1985 166.411 55.0462 165.635 56.0341 165.111L55.8095 164.983C55.8169 165.047 55.8248 165.117 55.8327 165.187C55.9612 166.372 56.1705 167.532 56.3069 168.687C56.4498 169.84 56.5013 170.994 56.4545 172.138C56.4257 172.703 56.396 173.296 56.3143 173.829C56.1988 174.362 55.9835 174.89 55.778 175.412C55.3571 176.457 54.9237 177.502 54.6244 178.588C54.2927 179.67 54.2022 180.802 54.0955 181.885C53.9855 182.976 53.8765 184.057 53.7684 185.126C53.548 187.256 53.4074 189.385 52.5875 191.232C52.1824 192.151 51.6428 193.003 51.2433 193.931C50.8308 194.857 50.6512 195.874 50.6081 196.852C50.5129 198.807 50.7672 200.716 50.2698 202.451C49.7756 204.177 48.7242 205.622 48.198 207.259C47.6343 208.914 47.8807 210.623 48.1206 212.136C48.3632 213.66 48.6073 215.143 48.3015 216.492C48.0282 217.854 47.1104 218.844 46.5318 219.926C46.2307 220.463 46.0159 221.045 45.9388 221.624C45.8567 222.201 45.8646 222.757 45.8456 223.283C45.8233 223.805 45.7973 224.317 45.6465 224.757C45.4966 225.195 45.2011 225.542 44.899 225.827C44.268 226.378 43.5952 226.717 43.0026 226.957C42.4069 227.195 41.8788 227.328 41.4492 227.407C41.0195 227.491 40.6854 227.504 40.4618 227.512C40.2386 227.504 40.1226 227.509 40.1226 227.509Z" fill="#EFEBFF"/>
</g>
</g>
</g>
</g>
<g id="Group_11">
<g id="Group_12">
<g id="Group_13">
<g id="Group_14">
<path id="Vector_3" d="M55.1414 167.743C55.1363 167.742 55.1205 167.794 55.0954 167.896C55.0676 168.018 55.0332 168.168 54.9906 168.353C54.8973 168.752 54.7864 169.356 54.6073 170.109C54.4208 170.86 53.9846 171.712 53.6139 172.761C53.2278 173.802 52.8371 175.007 52.4789 176.361C52.1161 177.714 51.7959 179.216 51.4614 180.825C51.1162 182.431 50.7723 184.154 49.9339 185.781C49.5404 186.606 49.0968 187.442 48.7456 188.355C48.3855 189.268 48.1944 190.265 48.0621 191.266C47.8399 193.273 47.4979 195.313 47.0487 197.4C46.0975 201.557 45.1918 205.516 44.3668 209.121C43.5214 212.714 42.7595 215.952 42.1173 218.68C41.4928 221.385 40.9852 223.582 40.627 225.132C40.4623 225.876 40.3319 226.463 40.2372 226.89C40.1992 227.076 40.1685 227.227 40.1435 227.349C40.124 227.453 40.1166 227.507 40.1217 227.509C40.1268 227.51 40.1444 227.459 40.1741 227.358C40.2071 227.238 40.2479 227.089 40.298 226.906C40.4066 226.483 40.556 225.901 40.7448 225.163C41.1258 223.619 41.6663 221.431 42.3312 218.737C42.992 216.012 43.7757 212.78 44.6452 209.194C45.4781 205.587 46.3926 201.627 47.3531 197.469C47.8027 195.385 48.148 193.308 48.3646 191.309C48.4941 190.316 48.6769 189.355 49.0221 188.469C49.3604 187.579 49.797 186.748 50.1909 185.914C51.0364 184.255 51.3825 182.481 51.7138 180.881C52.0372 179.268 52.3439 177.77 52.6914 176.42C53.0343 175.069 53.4079 173.865 53.7763 172.824C54.128 171.779 54.5493 170.917 54.7242 170.141C54.888 169.369 54.9776 168.772 55.0513 168.365C55.0815 168.177 55.1061 168.025 55.1256 167.902C55.1418 167.798 55.1469 167.744 55.1414 167.743Z" fill="#EFEBFF"/>
</g>
</g>
</g>
</g>
</g>
<g id="Group_15">
<g id="Group_16">
<g id="Group_17">
<g id="Group_18">
<path id="Vector_4" d="M40.9796 227.519C44.1408 225.534 45.0187 219.559 43.6759 215.973C42.3331 212.388 39.9991 209.119 39.6214 205.29C39.331 202.347 40.239 199.319 39.5658 196.444C38.6573 192.565 35.0051 189.578 35.0255 185.585C35.0367 183.345 36.2472 181.229 36.1377 178.991C36.0036 176.247 33.9713 174.081 32.7069 171.67C30.7716 167.979 30.6217 163.604 29.9443 159.457C29.2668 155.311 27.7263 150.874 24.1883 148.855C23.6868 152.382 22.8107 154.801 23.116 159.573C23.2255 161.287 25.153 164.558 25.4333 168.313C25.6008 170.558 25.7205 172.807 25.8643 175.053C26.004 177.239 26.152 179.465 26.9148 181.507C27.499 183.072 28.4321 184.491 28.8687 186.107C29.69 189.147 28.6506 192.452 29.3169 195.534C29.8816 198.144 31.6281 200.384 31.997 203.032C32.5153 206.754 30.2254 210.637 31.4277 214.182C32.0244 215.941 33.4219 217.348 33.8265 219.166C34.1402 220.577 33.8149 222.074 34.0998 223.491C34.5587 225.774 38.7482 227.524 40.9796 227.37" fill="#E8E0F3"/>
</g>
</g>
</g>
<g id="Group_19">
<g id="Group_20">
<g id="Group_21">
<g id="Group_22">
<path id="Vector_5" d="M25.0824 152.348C25.0769 152.349 25.0824 152.416 25.0973 152.547C25.1163 152.695 25.1409 152.886 25.172 153.126C25.2476 153.635 25.3335 154.381 25.5033 155.347C25.6861 156.317 26.1714 157.408 26.5626 158.725C26.9746 160.038 27.3853 161.552 27.7504 163.249C28.1216 164.944 28.4348 166.821 28.7638 168.841C29.1035 170.847 29.4515 173.063 30.4245 175.163C30.875 176.218 31.3803 177.273 31.7608 178.399C32.151 179.52 32.3343 180.728 32.4494 181.97C32.6266 184.465 32.9598 187.059 33.4214 189.672C34.4214 194.887 35.374 199.855 36.2407 204.376C37.1529 208.88 37.9751 212.937 38.667 216.353C39.3653 219.743 39.9318 222.494 40.329 224.421C40.5285 225.356 40.6849 226.089 40.7963 226.611C40.8496 226.847 40.8923 227.034 40.9257 227.179C40.9563 227.307 40.9749 227.372 40.98 227.37C40.9851 227.369 40.9772 227.302 40.9568 227.172C40.9313 227.026 40.8988 226.836 40.858 226.598C40.7605 226.073 40.6227 225.335 40.4478 224.395C40.0743 222.463 39.5407 219.705 38.8827 216.305C38.2095 212.886 37.4095 208.824 36.5219 204.315C35.663 199.795 34.7193 194.828 33.7286 189.614C33.2669 186.999 32.9361 184.443 32.7533 181.938C32.6354 180.688 32.4447 179.444 32.0415 178.295C31.649 177.145 31.1372 176.085 30.6866 175.039C29.7192 172.97 29.3717 170.807 29.0186 168.794C28.6789 166.777 28.3522 164.895 27.9657 163.196C27.5853 161.496 27.1574 159.978 26.7282 158.666C26.3181 157.345 25.8174 156.264 25.6221 155.318C25.4365 154.37 25.3293 153.616 25.2342 153.114C25.1906 152.876 25.1558 152.687 25.1288 152.54C25.1033 152.413 25.0875 152.348 25.0824 152.348Z" fill="#EBEBEB"/>
</g>
</g>
</g>
</g>
</g>
</g>
</g>
<g id="Group_23">
<path id="Vector_6" d="M97.5839 26.7298C100.293 23.4333 107.337 25.5058 112.164 28.2027C112.164 28.2027 115.485 29.8362 116.721 30.6836C116.735 30.687 116.748 30.6899 116.761 30.6938L128.047 29.2234C128.964 29.1039 129.894 29.2742 130.716 29.7123L131.641 30.204C132.108 30.4528 132.085 31.157 131.603 31.3719L123.295 35.0769C123.291 35.1248 123.29 35.1355 123.287 35.1834C127.704 38.2113 131.488 40.8046 131.488 40.8046C131.529 40.8331 131.57 40.8612 131.611 40.8888C133.156 41.9183 135.02 42.3093 136.835 41.971L141.228 41.1516C141.45 41.11 141.683 41.1201 141.893 41.2097C142.673 41.5441 142.824 42.6138 142.186 43.1704L137.098 47.6082C136.301 48.3032 135.192 48.4576 134.248 48.0041L131.865 46.8599L119.809 40.8718L121.193 48.0321C121.244 48.3269 121.021 48.596 120.733 48.5849L120.165 48.5631C119.387 48.5331 118.678 48.0868 118.291 47.3826L113.432 37.7045L99.2093 30.6406C97.3138 29.7306 96.6369 28.0347 97.5839 26.7298Z" fill="#EFEBFF"/>
</g>
<g id="Group_24">
<g id="Group_25">
<g id="Group_26">
<path id="Vector_7" d="M18.5526 58.4246L54.3391 57.5815C54.3391 57.5815 51.0442 51.6491 41.8519 52.7405C33.0726 53.7825 32.5431 50.003 28.06 49.6419C23.5768 49.2809 19.9261 52.9452 18.5526 58.4246Z" fill="#EFEBFF"/>
</g>
</g>
</g>
<g id="Group_27">
<g id="Group_28">
<g id="Group_29">
<path id="Vector_8" d="M185.867 78.6098H219.581C219.581 78.6098 216.599 72.9509 207.922 73.7747C199.634 74.5612 199.212 70.9907 194.998 70.5512C190.783 70.1108 187.272 73.4814 185.867 78.6098Z" fill="#EFEBFF"/>
</g>
</g>
</g>
<g id="Group_30">
<g id="Group_31">
<g id="Group_32">
<path id="Vector_9" d="M38.9324 39.899H64.65C64.65 39.899 62.376 35.5822 55.7561 36.2105C49.4341 36.8106 49.1125 34.0867 45.8979 33.7512C42.6829 33.4163 40.0042 35.9868 38.9324 39.899Z" fill="#EFEBFF"/>
</g>
</g>
</g>
<g id="Group_33">
<g id="Group_34">
<g id="Group_35">
<path id="Vector_10" d="M185.9 96.3527H202.724C202.724 96.3527 201.236 93.5286 196.906 93.94C192.77 94.3325 192.56 92.5509 190.457 92.3312C188.353 92.1119 186.601 93.7938 185.9 96.3527Z" fill="#EFEBFF"/>
</g>
</g>
</g>
<g id="Group_36">
<g id="Group_37">
<g id="Group_38">
<path id="Vector_11" d="M177.488 47.7786H194.312C194.312 47.7786 192.824 44.9544 188.494 45.3653C184.358 45.7579 184.148 43.9762 182.044 43.7565C179.942 43.5377 178.19 45.2196 177.488 47.7786Z" fill="#EFEBFF"/>
</g>
</g>
</g>
</g>
<g id="Floor">
<g id="Group_39">
<path id="Vector_12" d="M220.138 227.548C220.138 227.617 173.302 227.674 115.541 227.674C57.7597 227.674 10.9342 227.617 10.9342 227.548C10.9342 227.479 57.7597 227.422 115.541 227.422C173.302 227.422 220.138 227.478 220.138 227.548Z" fill="#263238"/>
</g>
</g>
<g id="Character_2">
<g id="Group_40">
<g id="Group_41">
<path id="Vector_13" d="M188.081 142.198C188.011 141.499 187.445 140.968 186.772 140.969L176.864 140.979C176.04 140.98 175.421 141.766 175.581 142.611C175.704 143.262 176.26 143.727 176.897 143.711L186.773 143.712C187.553 143.712 188.162 143.007 188.081 142.198Z" fill="#263238"/>
<g id="Group_42">
<g id="Group_43">
<g id="Group_44">
<g id="Group_45">
<path id="Vector_14" d="M209.69 224.162C209.437 225.963 210.632 227.637 212.358 227.901C214.085 228.165 215.69 226.918 215.943 225.118C216.196 223.317 215.001 221.642 213.274 221.379C211.547 221.115 209.943 222.361 209.69 224.162Z" fill="#263238"/>
</g>
<g id="Group_46">
<path id="Vector_15" d="M212.161 224.658L210.233 220.505L211.243 219.835L213.112 224.169L212.161 224.658Z" fill="#455A64"/>
</g>
<g id="Group_47">
<path id="Vector_16" d="M194.312 173.534L182.345 140.967L180.074 142.157L191.671 174.427L194.312 173.534Z" fill="#263238"/>
</g>
<g id="Group_48">
<path id="Vector_17" d="M204.286 223.861L221.95 216.541C222.608 216.268 222.929 215.491 222.668 214.805L205.086 168.641C203.703 165.009 199.758 163.234 196.276 164.677L188.84 167.759C185.357 169.202 183.656 173.316 185.04 176.949L202.621 223.113C202.883 223.799 203.628 224.134 204.286 223.861Z" fill="#F55656"/>
</g>
<g id="Group_49">
<g id="Group_50">
<path id="Vector_18" d="M202.582 223.343C202.582 223.343 202.555 223.245 202.491 223.06C202.421 222.865 202.323 222.592 202.198 222.241C201.93 221.512 201.543 220.457 201.046 219.102C200.03 216.37 198.568 212.435 196.762 207.578C194.943 202.713 192.778 196.925 190.375 190.499C189.171 187.286 187.906 183.913 186.595 180.417C186.267 179.543 185.936 178.662 185.603 177.773C185.25 176.907 185.134 175.955 185.232 175.015C185.446 173.133 186.703 171.396 188.449 170.692C190.188 169.969 192.243 170.35 193.628 171.579C194.312 172.198 194.848 172.979 195.154 173.864C195.488 174.753 195.82 175.635 196.149 176.508C197.465 180.003 198.735 183.374 199.945 186.586C202.368 193.004 204.552 198.785 206.387 203.643C208.227 208.487 209.717 212.41 210.752 215.134C211.27 216.48 211.673 217.528 211.952 218.253C212.089 218.6 212.195 218.869 212.271 219.061C212.344 219.243 212.388 219.333 212.388 219.333C212.388 219.333 212.362 219.235 212.297 219.051C212.228 218.856 212.13 218.583 212.004 218.232C211.737 217.503 211.349 216.447 210.852 215.093C209.837 212.361 208.374 208.427 206.569 203.569C204.749 198.704 202.585 192.916 200.182 186.489C198.977 183.275 197.712 179.902 196.4 176.405C196.072 175.531 195.742 174.649 195.408 173.76C195.094 172.844 194.525 172.009 193.805 171.36C192.348 170.064 190.181 169.662 188.349 170.425C186.51 171.166 185.185 172.997 184.961 174.979C184.856 175.965 184.984 176.981 185.35 177.876C185.685 178.764 186.016 179.646 186.345 180.519C187.661 184.013 188.931 187.383 190.14 190.595C192.564 197.012 194.747 202.793 196.582 207.651C198.422 212.494 199.912 216.418 200.948 219.142C201.465 220.488 201.869 221.537 202.148 222.261C202.284 222.608 202.39 222.878 202.466 223.07C202.538 223.252 202.582 223.343 202.582 223.343Z" fill="#263238"/>
</g>
</g>
<g id="Group_51">
<g id="Group_52">
<path id="Vector_19" d="M201.44 190.536C201.477 190.659 203.79 189.71 206.604 188.414C209.42 187.119 211.671 185.968 211.634 185.845C211.597 185.721 209.285 186.671 206.469 187.967C203.655 189.262 201.403 190.412 201.44 190.536Z" fill="#263238"/>
</g>
</g>
</g>
</g>
</g>
<g id="Group_53">
<path id="Vector_20" d="M185.806 140.967L183.737 136.707C183.508 136.23 183.122 135.854 182.65 135.65L179.396 134.24L170.647 121.856L169.829 131.336L175.411 137.336C175.411 137.336 178.903 145.011 181.757 144.621C181.757 144.621 181.661 143.494 181.185 142.639C180.255 140.967 181.245 140.967 181.374 140.975L183.743 140.979L185.806 140.967Z" fill="#FFBE9D"/>
<path id="Vector_21" d="M171.516 134.417C171.781 134.83 173.946 137.886 173.946 137.886L180.074 133.235L177.847 130.966L171.516 134.417Z" fill="#F55656"/>
</g>
<path id="Vector_22" d="M181.184 142.639C181.184 142.639 182.777 143.583 182.976 144.392V144.868L181.066 144.579L181.184 142.639Z" fill="#FFBE9D"/>
<path id="Vector_23" d="M183.322 143.55C183.06 143.296 182.787 143.025 182.68 142.669C182.573 142.313 182.702 141.85 183.042 141.733C183.374 141.618 183.712 141.866 183.972 142.11C184.3 142.419 184.612 142.746 184.906 143.089C185.15 143.374 185.396 143.733 185.309 144.103C185.238 144.4 184.949 144.608 184.656 144.627C184.363 144.646 184.076 144.502 183.862 144.291C183.648 144.08 183.499 143.809 183.372 143.533" fill="#FFBE9D"/>
<path id="Vector_24" d="M184.942 143.406C184.679 143.152 184.407 142.881 184.3 142.524C184.193 142.168 184.322 141.705 184.662 141.588C184.994 141.473 185.332 141.721 185.592 141.965C185.92 142.274 186.232 142.601 186.526 142.944C186.77 143.229 187.016 143.588 186.928 143.958C186.858 144.256 186.569 144.463 186.276 144.482C185.983 144.501 185.696 144.357 185.482 144.146C185.268 143.936 185.119 143.665 184.992 143.388" fill="#FFBE9D"/>
<g id="Group_54">
<path id="Vector_25" d="M180.074 136.133C180.069 136.075 180.487 136.098 180.962 136.529C181.188 136.773 181.334 137.106 181.518 137.469C181.688 137.837 181.866 138.286 181.833 138.797C181.796 139.316 181.527 139.716 181.332 140.056C181.128 140.387 181.021 140.727 180.95 141.016C180.805 141.602 180.917 141.971 180.883 141.981C180.856 142.002 180.673 141.613 180.783 140.981C180.835 140.672 180.933 140.3 181.141 139.938C181.331 139.586 181.565 139.21 181.592 138.779C181.622 138.345 181.471 137.929 181.317 137.569C181.151 137.211 181.012 136.864 180.838 136.651C180.652 136.448 180.438 136.317 180.303 136.237C180.162 136.156 180.077 136.151 180.074 136.133Z" fill="#EB996E"/>
</g>
</g>
<g id="Group_55">
<g id="Group_56">
<path id="Vector_26" d="M114.04 92.4512L107.538 114.14L126.67 134.99L144.206 130.236L114.04 92.4512Z" fill="#EFEBFF"/>
<g id="Group_57">
<path id="Vector_27" d="M114.04 92.4512C114.04 92.4512 114.089 92.5074 114.188 92.6279C114.292 92.7566 114.438 92.9362 114.628 93.1705C115.022 93.6598 115.595 94.3713 116.334 95.288C117.83 97.1489 119.994 99.8424 122.694 103.201C128.116 109.966 135.685 119.411 144.297 130.156L144.417 130.306L144.235 130.355C141.051 131.219 137.736 132.118 134.35 133.037C131.749 133.742 129.189 134.435 126.7 135.11L126.632 135.128L126.583 135.076C119.371 127.202 112.804 120.033 107.468 114.208L107.429 114.165L107.446 114.11C109.463 107.466 111.111 102.039 112.257 98.2646C112.826 96.3997 113.27 94.9429 113.576 93.9439C113.725 93.458 113.84 93.0848 113.92 92.8239C113.998 92.5727 114.04 92.4512 114.04 92.4512C113.816 93.2077 111.525 100.969 107.628 114.169L107.606 114.072C112.952 119.887 119.531 127.044 126.757 134.904L126.64 134.869C129.129 134.194 131.689 133.5 134.289 132.795C137.676 131.877 140.991 130.979 144.175 130.117L144.114 130.316C135.57 119.572 128.06 110.128 122.68 103.364C119.991 99.9736 117.835 97.2549 116.345 95.3765C115.605 94.441 115.031 93.7154 114.636 93.216C114.444 92.9725 114.297 92.7852 114.192 92.6511C114.092 92.5224 114.04 92.4512 114.04 92.4512Z" fill="#263238"/>
</g>
</g>
<path id="Vector_28" d="M114.635 106.758C115.545 105.119 117.918 104.632 119.356 105.788C120.553 106.75 121.102 108.581 122.541 109.064C123.582 109.413 124.726 108.903 125.802 109.105C127.062 109.34 127.997 110.533 128.361 111.813C128.726 113.093 128.627 114.46 128.525 115.791L122.3 115.881L114.635 106.758Z" fill="#E8E0F3"/>
<g id="Group_58">
<path id="Vector_29" d="M103.131 94.4293L143.449 137.77L127.019 136.033L104.036 110.723L103.131 94.4293Z" fill="#EFEBFF"/>
<g id="Group_59">
<path id="Vector_30" d="M103.131 94.4293C103.169 95.0629 103.506 100.639 104.116 110.718L104.094 110.665C109.971 117.122 118.004 125.948 127.105 135.948L127.031 135.91C131.093 136.338 135.312 136.784 139.635 137.24C140.946 137.378 142.247 137.516 143.461 137.644L143.362 137.857C120.94 113.654 104.02 95.3896 103.131 94.4293C104.024 95.3847 121.017 113.576 143.536 137.682L143.767 137.93L143.437 137.895C142.223 137.767 140.921 137.629 139.61 137.491C135.288 137.033 131.069 136.586 127.007 136.156L126.963 136.151L126.933 136.118C117.854 126.096 109.84 117.251 103.978 110.78L103.957 110.758L103.956 110.728C103.446 100.642 103.163 95.0629 103.131 94.4293Z" fill="#263238"/>
</g>
</g>
<path id="Vector_31" d="M118.91 111.655C117.664 113.149 117.846 115.538 118.911 117.177C119.976 118.816 121.728 119.826 123.5 120.536C124.933 121.11 126.699 121.475 127.885 120.459" fill="#E0E0E0"/>
<path id="Vector_32" d="M116.812 109.299C116.887 109.662 116.451 109.93 116.098 109.895C115.744 109.86 115.418 109.657 115.063 109.636C114.093 109.58 113.566 110.778 112.774 111.365C111.849 112.049 110.398 111.755 109.786 110.76C109.258 109.901 109.271 108.636 108.436 108.104C107.974 107.81 107.388 107.851 106.856 107.955C106.324 108.06 105.785 108.219 105.251 108.131C104.716 108.044 104.181 107.611 104.184 107.046L103.895 106.574L103.205 94.6133L116.812 109.299Z" fill="#E8E0F3"/>
<path id="Vector_33" d="M136.462 136.893C137.374 137.056 138.243 136.573 138.382 135.619C138.521 134.666 137.803 133.669 136.886 133.542C136.065 133.429 135.215 133.927 134.424 133.67C133.526 133.378 133.154 132.287 132.925 131.335C132.697 130.384 132.381 129.291 131.508 128.924C130.062 128.315 128.54 130.244 127.034 129.818C125.918 129.503 125.484 128.103 124.609 127.313C123.907 126.679 122.877 126.468 121.997 126.777C121.117 127.086 120.6 127.605 120.409 128.553L127.065 135.876L136.462 136.893Z" fill="#E8E0F3"/>
</g>
<g id="Group_60">
<g id="Group_61">
<path id="Vector_34" d="M125.44 210.142L123.783 220.104C123.783 220.104 113.52 221.694 113.041 223.503L131.443 227.548L134.635 212.136L125.44 210.142Z" fill="#F55656"/>
<g id="Group_62" opacity="0.6">
<path id="Vector_35" d="M129.641 220.523C129.977 220.703 130.139 221.174 129.98 221.532C129.821 221.889 129.363 222.064 129.024 221.891C128.685 221.717 128.475 221.157 128.671 220.821C128.866 220.484 129.416 220.309 129.704 220.562" fill="white"/>
</g>
<path id="Vector_36" opacity="0.6" d="M131.443 227.548L131.762 226.011L113.965 222.69C113.965 222.69 113.07 222.881 113.041 223.504L131.443 227.548Z" fill="white"/>
<g id="Group_63">
<path id="Vector_37" d="M123.504 219.941C123.489 220.036 123.929 220.177 124.31 220.575C124.701 220.963 124.848 221.419 124.938 221.4C125.024 221.4 125.003 220.81 124.533 220.337C124.068 219.858 123.502 219.851 123.504 219.941Z" fill="#263238"/>
</g>
<g id="Group_64">
<path id="Vector_38" d="M121.406 220.35C121.367 220.436 121.724 220.681 121.949 221.144C122.188 221.601 122.178 222.047 122.268 222.062C122.35 222.096 122.523 221.56 122.233 220.99C121.947 220.416 121.426 220.261 121.406 220.35Z" fill="#263238"/>
</g>
<g id="Group_65">
<path id="Vector_39" d="M119.823 222.518C119.9 222.556 120.12 222.115 119.993 221.551C119.87 220.986 119.487 220.691 119.433 220.761C119.367 220.826 119.584 221.162 119.681 221.626C119.79 222.089 119.736 222.489 119.823 222.518Z" fill="#263238"/>
</g>
<g id="Group_66">
<path id="Vector_40" d="M124.123 217.714C124.144 217.808 124.582 217.77 125.083 217.917C125.586 218.054 125.945 218.319 126.009 218.249C126.074 218.193 125.758 217.76 125.166 217.595C124.576 217.425 124.094 217.631 124.123 217.714Z" fill="#263238"/>
</g>
</g>
<path id="Vector_41" opacity="0.3" d="M125.113 212.116L124.816 213.891L133.878 215.792L134.21 214.207L125.113 212.116Z" fill="black"/>
<g id="Group_67">
<path id="Vector_42" d="M124.493 215.711C124.484 215.75 124.828 215.885 125.416 215.909C125.709 215.92 126.061 215.896 126.443 215.812C126.634 215.769 126.831 215.711 127.031 215.635C127.128 215.597 127.24 215.562 127.355 215.47C127.474 215.394 127.581 215.158 127.497 214.98C127.433 214.812 127.279 214.712 127.147 214.679C127.012 214.645 126.896 214.649 126.791 214.653C126.576 214.66 126.369 214.688 126.176 214.732C125.791 214.822 125.463 214.97 125.209 215.127C124.699 215.446 124.482 215.764 124.509 215.789C124.544 215.829 124.811 215.581 125.314 215.336C125.564 215.214 125.877 215.1 126.234 215.033C126.412 215.002 126.601 214.981 126.797 214.98C127.003 214.969 127.169 215.004 127.201 215.106C127.212 215.144 127.212 215.158 127.159 215.209C127.105 215.254 127.016 215.29 126.921 215.329C126.736 215.404 126.552 215.464 126.375 215.512C126.021 215.608 125.691 215.653 125.412 215.672C124.854 215.711 124.502 215.66 124.493 215.711Z" fill="#263238"/>
</g>
<g id="Group_68">
<path id="Vector_43" d="M124.583 215.871C124.612 215.893 124.858 215.596 125.014 214.996C125.09 214.698 125.133 214.327 125.1 213.916C125.083 213.711 125.046 213.496 124.984 213.28C124.914 213.067 124.834 212.784 124.494 212.666C124.313 212.619 124.132 212.733 124.055 212.849C123.967 212.965 123.933 213.074 123.889 213.181C123.81 213.397 123.769 213.618 123.758 213.828C123.733 214.249 123.825 214.624 123.951 214.907C124.21 215.484 124.562 215.678 124.576 215.648C124.616 215.607 124.339 215.358 124.16 214.819C124.072 214.554 124.014 214.217 124.051 213.852C124.069 213.67 124.11 213.482 124.18 213.3C124.25 213.103 124.357 212.954 124.426 212.991C124.518 213.009 124.642 213.197 124.685 213.377C124.745 213.57 124.784 213.762 124.808 213.948C124.853 214.32 124.836 214.663 124.792 214.946C124.704 215.516 124.537 215.846 124.583 215.871Z" fill="#263238"/>
</g>
</g>
<g id="Group_69">
<g id="Group_70">
<g id="Group_71">
<path id="Vector_44" d="M185.908 210.749L181.928 205.329L181.721 205.048L174.942 210.307L181.22 217.501L180.991 224.782C177.494 225.725 176.969 227.548 176.969 227.548L184.237 227.54L190.838 214.275L185.908 210.749Z" fill="#F55656"/>
<path id="Vector_45" opacity="0.6" d="M190.838 214.275L184.237 227.539L176.969 227.548L177.786 226.407L183.697 226.062L189.789 213.525L190.838 214.275Z" fill="white"/>
</g>
<g id="Group_72">
<path id="Vector_46" d="M181.035 221.446C181.088 221.523 181.507 221.275 182.069 221.291C182.632 221.291 183.044 221.551 183.1 221.475C183.168 221.418 182.758 220.964 182.074 220.958C181.39 220.944 180.968 221.387 181.035 221.446Z" fill="#263238"/>
</g>
<g id="Group_73">
<path id="Vector_47" d="M181.151 219.64C181.224 219.693 181.547 219.246 182.127 219.128C182.705 219.003 183.169 219.285 183.216 219.207C183.241 219.173 183.158 219.046 182.953 218.93C182.753 218.814 182.422 218.726 182.063 218.801C181.705 218.876 181.433 219.091 181.291 219.279C181.146 219.468 181.115 219.618 181.151 219.64Z" fill="#263238"/>
</g>
<g id="Group_74">
<path id="Vector_48" d="M181.102 217.321C181.182 217.362 181.429 216.924 181.935 216.741C182.44 216.552 182.896 216.73 182.933 216.646C182.952 216.607 182.86 216.502 182.659 216.423C182.461 216.345 182.147 216.31 181.829 216.427C181.51 216.545 181.287 216.778 181.181 216.968C181.072 217.161 181.064 217.304 181.102 217.321Z" fill="#263238"/>
</g>
<g id="Group_75">
<path id="Vector_49" d="M179.155 215.524C179.242 215.555 179.446 215.124 179.897 214.819C180.34 214.501 180.799 214.469 180.805 214.373C180.829 214.286 180.266 214.157 179.719 214.542C179.169 214.922 179.068 215.514 179.155 215.524Z" fill="#263238"/>
</g>
<g id="Group_76">
<path id="Vector_50" d="M178.207 213.968C178.243 213.993 178.483 213.688 178.84 213.174C179.042 212.874 179.246 212.571 179.454 212.262C179.559 212.084 179.706 211.93 179.791 211.649C179.829 211.508 179.826 211.341 179.747 211.189C179.672 211.028 179.467 210.926 179.308 210.949C178.991 210.998 178.814 211.168 178.629 211.317C178.452 211.477 178.305 211.659 178.188 211.844C177.954 212.218 177.844 212.61 177.807 212.938C177.737 213.609 177.947 213.99 177.972 213.973C178.028 213.961 177.91 213.573 178.03 212.976C178.092 212.681 178.212 212.339 178.432 212.017C178.542 211.857 178.674 211.703 178.83 211.568C178.983 211.438 179.182 211.296 179.331 211.282C179.403 211.279 179.438 211.298 179.469 211.351C179.499 211.406 179.508 211.488 179.488 211.566C179.449 211.727 179.309 211.915 179.208 212.094C179.019 212.416 178.834 212.732 178.651 213.045C178.343 213.592 178.169 213.943 178.207 213.968Z" fill="#263238"/>
</g>
<g id="Group_77">
<path id="Vector_51" d="M177.947 214.193C177.981 214.191 177.953 213.792 177.559 213.337C177.176 212.906 176.336 212.445 175.404 212.932C175.338 212.992 175.286 213.1 175.292 213.203C175.295 213.308 175.339 213.386 175.379 213.444C175.466 213.561 175.561 213.62 175.64 213.682C175.809 213.806 175.983 213.907 176.154 213.988C176.497 214.152 176.83 214.234 177.111 214.266C177.676 214.329 178.016 214.215 178.009 214.178C178.004 214.124 177.665 214.151 177.147 214.033C176.89 213.974 176.589 213.876 176.282 213.712C176.128 213.63 175.973 213.532 175.823 213.417C175.747 213.356 175.67 213.3 175.635 213.246C175.599 213.18 175.609 213.199 175.621 213.179C175.644 213.151 175.741 213.119 175.831 213.097C175.921 213.075 176.011 213.06 176.101 213.053C176.28 213.039 176.455 213.054 176.617 213.092C176.944 213.165 177.209 213.331 177.402 213.506C177.789 213.865 177.898 214.215 177.947 214.193Z" fill="#263238"/>
</g>
<path id="Vector_52" opacity="0.6" d="M185.039 214.049C185.039 214.545 185.425 214.948 185.902 214.948C186.378 214.948 186.764 214.545 186.764 214.049C186.764 213.552 186.378 213.149 185.902 213.149C185.425 213.149 185.039 213.552 185.039 214.049Z" fill="white"/>
</g>
<path id="Vector_53" opacity="0.3" d="M175.573 211.03L176.969 212.629L182.837 206.567L182.022 205.456L175.573 211.03Z" fill="black"/>
</g>
<g id="Group_78">
<g id="Group_79">
<g id="Group_80">
<g id="Group_81">
<path id="Vector_54" d="M157.507 84.7996C161.354 83.3985 165.595 83.1976 169.548 84.2295C171.318 84.6912 173.112 85.4564 174.247 86.9457C175.589 88.707 175.756 91.1096 175.962 93.349C176.38 97.9044 177.186 102.421 178.367 106.828C179.349 110.498 180.596 114.109 181.127 117.878C181.658 121.647 181.413 125.681 179.572 128.971C176.734 134.043 170.698 136.287 165.069 136.384C162.105 136.436 159.075 135.984 156.447 134.553C153.819 133.123 151.636 130.618 150.995 127.6" fill="#E8505B"/>
</g>
<g id="Group_82" opacity="0.5">
<g id="Group_83">
<path id="Vector_55" d="M157.507 84.7996C161.354 83.3985 165.595 83.1976 169.548 84.2295C171.318 84.6912 173.112 85.4564 174.247 86.9457C175.589 88.707 175.756 91.1096 175.962 93.349C176.38 97.9044 177.186 102.421 178.367 106.828C179.349 110.498 180.596 114.109 181.127 117.878C181.658 121.647 181.413 125.681 179.572 128.971C176.734 134.043 170.698 136.287 165.069 136.384C162.105 136.436 159.075 135.984 156.447 134.553C153.819 133.123 151.636 130.618 150.995 127.6" fill="black"/>
</g>
</g>
</g>
<g id="Group_84">
<g id="Group_85">
<path id="Vector_56" d="M165.242 89.4461C165.207 89.4892 166.02 90.023 166.853 91.3303C167.273 91.9764 167.688 92.8026 168.109 93.7459C168.535 94.6849 168.976 95.7463 169.605 96.7772C170.236 97.8043 171.033 98.676 171.931 99.205C172.823 99.7509 173.804 99.8821 174.566 99.7427C175.338 99.614 175.901 99.2611 176.212 98.9518C176.372 98.8008 176.477 98.6629 176.539 98.5642C176.601 98.4654 176.629 98.4117 176.62 98.4054C176.598 98.3875 176.462 98.5908 176.136 98.8589C175.816 99.1275 175.268 99.4291 174.536 99.5239C173.807 99.6265 172.905 99.4842 172.069 98.9557C171.228 98.4432 170.469 97.6049 169.857 96.6083C169.244 95.6064 168.799 94.5586 168.357 93.6215C167.921 92.6806 167.478 91.8477 167.026 91.204C166.577 90.5569 166.132 90.0985 165.797 89.8221C165.463 89.5438 165.252 89.4311 165.242 89.4461Z" fill="#E0E0E0"/>
</g>
</g>
<g id="Group_86">
<g id="Group_87">
<path id="Vector_57" d="M173.397 134.782C173.407 134.782 173.412 134.651 173.411 134.403C173.407 134.122 173.401 133.763 173.394 133.319C173.373 132.377 173.326 131.015 173.256 129.332C173.115 125.968 172.861 121.321 172.476 116.198C172.089 111.073 171.644 106.442 171.279 103.095C171.097 101.422 170.939 100.069 170.818 99.1357C170.759 98.6958 170.711 98.34 170.673 98.0617C170.637 97.8163 170.613 97.6886 170.603 97.69C170.592 97.691 170.597 97.8217 170.613 98.069C170.636 98.3492 170.666 98.7069 170.702 99.1493C170.792 100.126 170.916 101.472 171.068 103.118C171.379 106.469 171.79 111.1 172.177 116.222C172.562 121.343 172.849 125.983 173.044 129.344C173.141 130.995 173.22 132.344 173.277 133.324C173.307 133.767 173.332 134.126 173.351 134.406C173.371 134.653 173.387 134.783 173.397 134.782Z" fill="#E0E0E0"/>
</g>
</g>
<g id="Group_88">
<g id="Group_89">
<path id="Vector_58" d="M172.24 114.205C172.243 114.287 174.019 114.266 176.19 113.982C178.363 113.704 180.09 113.273 180.074 113.192C180.057 113.104 178.314 113.395 176.154 113.673C173.995 113.954 172.235 114.115 172.24 114.205Z" fill="#E0E0E0"/>
</g>
</g>
<g id="Group_90">
<g id="Group_91">
<path id="Vector_59" d="M173.676 114.16C173.638 114.151 173.523 114.482 173.433 115.041C173.388 115.321 173.351 115.654 173.337 116.033C173.334 116.223 173.338 116.445 173.437 116.666C173.535 116.894 173.761 117.081 174.038 117.087C174.178 117.09 174.332 117.02 174.418 116.905C174.511 116.791 174.544 116.653 174.553 116.536C174.569 116.295 174.511 116.096 174.47 115.916C174.38 115.55 174.265 115.231 174.153 114.972C173.925 114.453 173.713 114.176 173.681 114.196C173.642 114.219 173.785 114.532 173.956 115.053C174.04 115.314 174.13 115.628 174.202 115.982C174.237 116.161 174.277 116.344 174.261 116.508C174.246 116.674 174.165 116.775 174.039 116.775C173.726 116.767 173.6 116.384 173.613 116.034C173.611 115.674 173.626 115.342 173.643 115.067C173.678 114.513 173.718 114.169 173.676 114.16Z" fill="#E0E0E0"/>
</g>
</g>
</g>
<g id="Group_92">
<g id="Group_93">
<path id="Vector_60" d="M153.679 86.5595L172.316 84.289C174.758 83.9914 176.506 81.6856 176.221 79.1383L175.818 75.532C175.532 72.9847 173.322 71.1615 170.88 71.4587L152.243 73.7291C149.801 74.0268 148.053 76.3326 148.338 78.8794L148.742 82.4857C149.027 85.0334 151.237 86.8571 153.679 86.5595Z" fill="#455A64"/>
</g>
<g id="Group_94">
<g id="Group_95">
<path id="Vector_61" d="M170.572 71.7641C170.575 71.7549 170.516 71.7234 170.395 71.6837C170.274 71.6445 170.088 71.6053 169.846 71.5981C169.368 71.5816 168.634 71.7384 167.937 72.2887C167.258 72.8211 166.471 73.5796 166.016 74.6957C165.543 75.7895 165.388 77.1307 165.487 78.4878C165.564 79.8614 166.04 81.1426 166.742 82.0873C167.441 83.0423 168.359 83.6405 169.178 83.9164C170 84.201 170.717 84.213 171.19 84.1467C171.429 84.1187 171.61 84.0717 171.73 84.0335C171.85 83.9943 171.912 83.9691 171.909 83.9585C171.903 83.9314 171.648 83.9996 171.18 84.0257C170.716 84.0538 170.028 84.0074 169.248 83.7082C168.47 83.4164 167.616 82.8312 166.962 81.9136C166.305 81.0027 165.86 79.7869 165.786 78.4656C165.689 77.1413 165.832 75.8597 166.269 74.8104C166.681 73.7519 167.421 73.0046 168.064 72.4659C168.712 71.9199 169.389 71.7423 169.848 71.72C170.313 71.6988 170.566 71.7936 170.572 71.7641Z" fill="#263238"/>
</g>
</g>
<g id="Group_96">
<path id="Vector_62" d="M159.92 72.7466L162.794 72.4499C162.03 72.6701 161.383 73.2378 160.95 73.9304C160.516 74.6226 160.281 75.4333 160.159 76.2503C159.644 79.6988 161.402 83.4096 164.23 85.2744L161.917 85.5963C161.917 85.5963 155.282 79.4122 159.92 72.7466Z" fill="#263238"/>
</g>
</g>
</g>
<g id="Group_97">
<path id="Vector_63" d="M156.659 79.0938C158.134 79.5183 159.794 79.1736 161.001 78.1926C162.208 77.211 162.934 75.6163 162.899 74.0205C162.867 72.5303 162.221 71.0115 162.665 69.5943C162.97 68.6215 163.752 67.8631 164.014 66.8767C164.405 65.4043 163.552 63.916 162.736 62.6465C162.213 61.8319 161.679 61.0048 160.951 60.3857C160.222 59.7672 159.256 59.3766 158.337 59.5799" fill="#263238"/>
<g id="Group_98">
<path id="Vector_64" d="M143.484 59.7111C143.563 60.8359 142.851 61.8411 142.134 62.6848C141.416 63.5289 140.618 64.4083 140.463 65.5249C140.188 67.5035 142.045 69.3402 141.662 71.299C141.456 72.3488 140.632 73.1919 140.485 74.2524C140.343 75.278 140.87 76.2818 141.523 77.0629C142.177 77.8436 142.972 78.4946 143.55 79.3377C144.159 80.2259 144.493 81.28 144.93 82.2722C145.367 83.2644 145.955 84.2489 146.875 84.7697C148.259 85.5523 150.196 85.184 151.257 86.3969C152.282 87.5686 153.538 87.754 154.801 88.6378" fill="#263238"/>
<path id="Vector_65" d="M160.06 61.4312C160.088 60.4109 159.184 59.6225 158.273 59.2488C157.363 58.8752 156.351 58.7343 155.539 58.1642C154.82 57.6594 154.337 56.8724 153.729 56.2291C152.236 54.6508 149.906 53.9964 147.855 54.5802C145.805 55.1634 144.116 56.9614 143.599 59.1118C143.249 60.5648 143.488 62.283 144.586 63.2486C145.86 64.3691 147.749 64.1203 149.382 63.7718C151.015 63.4233 152.863 63.0792 154.227 64.0796C155.049 64.6827 155.521 65.6642 156.023 66.5722C156.526 67.4802 157.157 68.4076 158.107 68.7488C159.057 69.09 160.348 68.5005 160.385 67.4526" fill="#263238"/>
<g id="Group_99">
<g id="Group_100">
<g id="Group_101">
<g id="Group_102">
<g id="Group_103">
<g id="Group_104">
<g id="Group_105">
<g id="Group_106">
<g id="Group_107">
<g id="Group_108">
<g id="Group_109">
<g id="Group_110">
<g id="Group_111">
<path id="Vector_66" d="M156.203 61.6407C157.048 61.7361 157.682 62.4897 157.664 63.3759L156.687 86.4327C156.646 89.1556 152.83 90.686 150.035 90.6178C147.213 90.5491 147.122 89.1053 147.087 86.5144C147.028 82.186 147.033 80.5612 147.031 80.5859C147.031 80.5859 143.466 79.9601 142.737 75.1041C142.375 72.6895 142.499 68.7318 142.702 65.4967C142.884 62.585 144.741 59.0165 147.522 59.3296L156.203 61.6407Z" fill="#FFBE9D"/>
</g>
</g>
</g>
</g>
</g>
</g>
<g id="Group_112">
<g id="Group_113">
<g id="Group_114">
<g id="Group_115">
<g id="Group_116">
<g id="Group_117">
<g id="Group_118">
<path id="Vector_67" d="M143.584 68.2715C143.572 68.6001 143.829 68.8818 144.158 68.9007C144.486 68.9201 144.762 68.6698 144.774 68.3407C144.786 68.0121 144.529 67.7299 144.201 67.711C143.872 67.6921 143.596 67.9429 143.584 68.2715Z" fill="#263238"/>
</g>
</g>
</g>
</g>
</g>
</g>
<g id="Group_119">
<g id="Group_120">
<g id="Group_121">
<g id="Group_122">
<g id="Group_123">
<g id="Group_124">
<g id="Group_125">
<path id="Vector_68" d="M143.521 67.5586C143.595 67.6399 144.047 67.2919 144.69 67.2953C145.331 67.289 145.802 67.6346 145.871 67.5528C145.906 67.5165 145.831 67.3698 145.625 67.2135C145.424 67.0576 145.08 66.9061 144.679 66.9071C144.279 66.9086 143.943 67.0615 143.749 67.2183C143.551 67.3756 143.484 67.5223 143.521 67.5586Z" fill="#263238"/>
</g>
</g>
</g>
</g>
</g>
</g>
</g>
</g>
<g id="Group_126">
<g id="Group_127">
<g id="Group_128">
<g id="Group_129">
<g id="Group_130">
<g id="Group_131">
<g id="Group_132">
<path id="Vector_69" d="M149.978 68.4434C149.966 68.772 150.223 69.0537 150.552 69.073C150.88 69.0919 151.156 68.8422 151.168 68.5131C151.18 68.1844 150.923 67.9023 150.594 67.8834C150.266 67.864 149.989 68.1147 149.978 68.4434Z" fill="#263238"/>
</g>
</g>
</g>
</g>
</g>
</g>
<g id="Group_133">
<g id="Group_134">
<g id="Group_135">
<g id="Group_136">
<g id="Group_137">
<g id="Group_138">
<g id="Group_139">
<path id="Vector_70" d="M149.833 67.698C149.907 67.7793 150.361 67.4313 151.002 67.4347C151.644 67.4284 152.115 67.774 152.184 67.6922C152.218 67.6559 152.144 67.5092 151.938 67.3529C151.736 67.197 151.393 67.0455 150.992 67.046C150.592 67.0475 150.255 67.2004 150.061 67.3572C149.865 67.515 149.797 67.6617 149.833 67.698Z" fill="#263238"/>
</g>
</g>
</g>
</g>
</g>
</g>
</g>
</g>
<g id="Group_140">
<g id="Group_141">
<g id="Group_142">
<g id="Group_143">
<g id="Group_144">
<g id="Group_145">
<g id="Group_146">
<path id="Vector_71" d="M147.492 72.6604C147.495 72.6222 147.096 72.5496 146.449 72.4615C146.285 72.4436 146.13 72.4092 146.102 72.2926C146.064 72.1687 146.133 71.9848 146.213 71.7858C146.368 71.372 146.53 70.9388 146.701 70.4844C147.378 68.6316 147.869 67.1075 147.797 67.0799C147.725 67.0523 147.118 68.5314 146.441 70.3842C146.278 70.8411 146.121 71.2767 145.973 71.6934C145.911 71.8875 145.804 72.1077 145.887 72.3647C145.931 72.4925 146.051 72.5854 146.156 72.6154C146.261 72.6493 146.354 72.6512 146.435 72.6566C147.085 72.6948 147.489 72.6987 147.492 72.6604Z" fill="#263238"/>
</g>
</g>
</g>
</g>
</g>
</g>
</g>
<g id="Group_147">
<g id="Group_148">
<g id="Group_149">
<g id="Group_150">
<g id="Group_151">
<g id="Group_152">
<path id="Vector_72" d="M147.031 80.5869C147.031 80.5869 150.162 80.8047 153.267 78.8672C153.267 78.8672 151.748 82.1981 147.092 81.733L147.031 80.5869Z" fill="#EB996E"/>
</g>
</g>
</g>
</g>
</g>
</g>
<g id="Group_153">
<g id="Group_154">
<g id="Group_155">
<g id="Group_156">
<g id="Group_157">
<g id="Group_158">
<path id="Vector_73" d="M147.76 74.2755C147.991 73.9575 148.396 73.7838 148.798 73.8298C149.077 73.8617 149.358 74.0025 149.527 74.2397C149.696 74.4769 149.73 74.8128 149.576 75.0383C149.402 75.2924 149.04 75.35 148.734 75.2585C148.428 75.167 148.164 74.956 147.914 74.7455C147.845 74.6874 147.774 74.6264 147.731 74.547C147.688 74.4677 147.679 74.3636 147.733 74.2978" fill="#EB996E"/>
</g>
</g>
</g>
</g>
</g>
</g>
<g id="Group_159">
<g id="Group_160">
<g id="Group_161">
<g id="Group_162">
<g id="Group_163">
<g id="Group_164">
<g id="Group_165">
<path id="Vector_74" d="M149.381 73.1284C149.276 73.1217 149.273 73.8491 148.675 74.3636C148.079 74.88 147.336 74.7968 147.33 74.8984C147.32 74.9439 147.495 75.0402 147.809 75.0494C148.117 75.0611 148.566 74.9589 148.932 74.6443C149.297 74.3288 149.454 73.9067 149.479 73.6086C149.506 73.3046 149.428 73.1241 149.381 73.1284Z" fill="#263238"/>
</g>
</g>
</g>
</g>
</g>
</g>
</g>
</g>
</g>
</g>
<g id="Group_166">
<g id="Group_167">
<g id="Group_168">
<g id="Group_169">
<g id="Group_170">
<g id="Group_171">
<path id="Vector_75" d="M149.547 66.5248C149.61 66.7068 150.251 66.6221 151.004 66.7189C151.76 66.7997 152.366 67.031 152.467 66.8679C152.511 66.79 152.406 66.6182 152.16 66.4415C151.917 66.2649 151.529 66.0969 151.077 66.0432C150.625 65.9904 150.211 66.0645 149.936 66.1802C149.659 66.2954 149.519 66.4381 149.547 66.5248Z" fill="#263238"/>
</g>
</g>
</g>
</g>
</g>
</g>
<g id="Group_172">
<g id="Group_173">
<g id="Group_174">
<g id="Group_175">
<g id="Group_176">
<g id="Group_177">
<path id="Vector_76" d="M143.761 65.6202C143.873 65.7726 144.316 65.6158 144.848 65.6095C145.38 65.5839 145.83 65.7141 145.934 65.5553C145.98 65.4779 145.909 65.3254 145.713 65.1812C145.519 65.037 145.195 64.9193 144.829 64.93C144.464 64.9411 144.147 65.0786 143.961 65.2339C143.773 65.3893 143.711 65.5461 143.761 65.6202Z" fill="#263238"/>
</g>
</g>
</g>
</g>
</g>
</g>
</g>
</g>
</g>
</g>
<path id="Vector_77" d="M159.453 77.6108C158.173 77.8799 156.779 77.4695 155.823 76.5426C154.866 75.6158 154.373 74.1953 154.537 72.8444C154.681 71.6523 155.298 70.4394 154.901 69.3112C154.377 67.8195 152.372 67.3602 151.841 65.8714C151.532 65.006 151.809 63.994 151.458 63.146C151.129 62.3489 150.324 61.8896 149.542 61.5943C148.759 61.2991 147.919 61.0953 147.262 60.5624C146.605 60.0295 146.195 59.0238 146.619 58.2765C150.091 58.7106 153.513 59.5775 156.788 60.8538C157.547 61.1495 158.345 61.5053 158.794 62.2095C159.269 62.9543 159.247 63.917 159.207 64.811C159.012 69.1694 158.817 73.5278 158.622 77.8867" fill="#263238"/>
<g id="Group_178">
<path id="Vector_78" d="M161.962 81.6449C161.925 81.6507 162.024 81.1764 161.72 80.4359C161.571 80.0695 161.308 79.6557 160.926 79.253C160.545 78.8479 160.03 78.4791 159.421 78.1417C158.816 77.7976 158.115 77.4854 157.4 77.0576C156.69 76.6307 155.956 76.0484 155.474 75.1884C155.235 74.7629 155.086 74.2547 155.085 73.7315C155.082 73.2093 155.196 72.6992 155.294 72.1919C155.39 71.6871 155.488 71.1649 155.391 70.6678C155.307 70.1659 154.974 69.7502 154.532 69.4888C154.093 69.2163 153.591 69.0493 153.116 68.8165C152.646 68.5871 152.17 68.2609 151.912 67.7667C151.651 67.2813 151.581 66.7377 151.563 66.2329C151.546 65.7233 151.577 65.233 151.571 64.7601C151.566 64.2882 151.527 63.8289 151.384 63.4209C151.244 63.0124 150.997 62.6673 150.678 62.4258C150.039 61.9345 149.282 61.7617 148.615 61.5822C147.943 61.4074 147.323 61.1988 146.859 60.8557C146.388 60.5159 146.13 60.0484 146.022 59.6525C145.913 59.2498 145.965 58.9134 146.038 58.7125C146.118 58.5102 146.199 58.4299 146.199 58.4299C146.211 58.4371 146.146 58.5296 146.085 58.729C146.029 58.9274 145.995 59.2464 146.113 59.6244C146.228 59.9971 146.486 60.4317 146.936 60.7395C147.385 61.0556 147.984 61.2463 148.656 61.4094C149.323 61.5793 150.104 61.739 150.799 62.2588C151.145 62.5143 151.428 62.8996 151.584 63.3449C151.743 63.7897 151.786 64.2751 151.793 64.7577C151.802 65.2417 151.774 65.7325 151.793 66.2247C151.813 66.7145 151.884 67.2159 152.117 67.6443C152.345 68.0784 152.763 68.3678 153.218 68.5905C153.676 68.8155 154.181 68.9806 154.655 69.2734C154.891 69.4196 155.113 69.602 155.287 69.8329C155.462 70.0628 155.572 70.3397 155.627 70.6189C155.734 71.1862 155.623 71.7331 155.526 72.2423C155.425 72.7529 155.315 73.248 155.316 73.7311C155.315 74.2112 155.447 74.6739 155.668 75.0746C156.113 75.8829 156.813 76.455 157.502 76.8785C158.198 77.3059 158.895 77.6287 159.504 77.9869C160.114 78.3378 160.64 78.7288 161.023 79.1557C161.408 79.5802 161.667 80.0153 161.808 80.3996C161.953 80.7829 161.989 81.1058 161.989 81.3202C161.995 81.4276 161.982 81.5094 161.978 81.5641C161.971 81.6173 161.966 81.6454 161.962 81.6449Z" fill="#263238"/>
</g>
<g id="Group_179">
<path id="Vector_79" d="M148.397 84.9754C148.399 84.9841 148.321 85.0078 148.168 85.0465C148.092 85.0688 147.997 85.0857 147.882 85.0973C147.768 85.1152 147.636 85.1269 147.486 85.1249C146.893 85.1404 145.992 84.9768 145.094 84.3413C144.652 84.0224 144.208 83.5892 143.886 83.0108C143.55 82.4368 143.388 81.7326 143.266 81.0158C143.137 80.3009 143.028 79.5367 142.662 78.8702C142.3 78.1998 141.625 77.7531 141.018 77.1805C140.387 76.6172 139.983 75.804 139.878 74.9924C139.765 74.1783 139.939 73.3555 140.309 72.7123C140.667 72.069 141.09 71.5337 141.281 70.9321C141.483 70.3363 141.517 69.7332 141.479 69.1931C141.385 68.1075 141.082 67.26 140.89 66.6816C140.689 66.1023 140.571 65.7838 140.588 65.776C140.595 65.7727 140.635 65.8482 140.702 65.9948C140.769 66.142 140.865 66.3602 140.978 66.6463C141.197 67.2179 141.529 68.0605 141.649 69.1776C141.7 69.7332 141.675 70.3663 141.47 71.0008C141.273 71.646 140.838 72.207 140.502 72.8265C140.158 73.4402 140.006 74.1947 140.113 74.958C140.218 75.7203 140.581 76.4574 141.181 76.9952C141.761 77.5469 142.468 78.0106 142.867 78.7473C143.26 79.4737 143.361 80.2641 143.485 80.9751C143.601 81.6914 143.75 82.3613 144.059 82.9063C144.356 83.4585 144.774 83.8806 145.192 84.1961C146.043 84.8258 146.91 85.0131 147.488 85.0276C148.072 85.0441 148.393 84.9468 148.397 84.9754Z" fill="#263238"/>
</g>
</g>
<g id="Group_180">
<path id="Vector_80" d="M161.912 61.8392C161.912 61.8392 161.966 61.8953 161.989 62.0376C162.017 62.177 161.979 62.4089 161.81 62.6209C161.646 62.8285 161.362 63.0376 160.977 63.0603C160.594 63.07 160.198 62.8953 159.797 62.692C159.397 62.4815 158.956 62.2956 158.44 62.2738C157.928 62.2404 157.376 62.3222 156.797 62.4297C156.217 62.5352 155.601 62.6741 154.939 62.6794C154.286 62.6886 153.549 62.4839 153.033 61.9539C152.511 61.4375 152.214 60.7807 151.936 60.1786C151.66 59.5721 151.402 58.986 151.048 58.5132C150.359 57.534 149.187 57.2649 148.362 57.4909C147.511 57.7146 146.998 58.3196 146.742 58.7411C146.481 59.1782 146.424 59.4686 146.401 59.4603C146.393 59.4584 146.403 59.3863 146.436 59.2517C146.472 59.1186 146.537 58.9231 146.661 58.6913C146.902 58.2411 147.412 57.5834 148.319 57.3186C148.765 57.1928 149.292 57.1826 149.814 57.3496C150.339 57.5055 150.848 57.866 151.223 58.3699C151.604 58.8689 151.871 59.47 152.149 60.0721C152.428 60.6713 152.721 61.3 153.198 61.77C153.668 62.2506 154.319 62.4355 154.939 62.4331C155.567 62.4316 156.174 62.3019 156.759 62.2012C157.343 62.0996 157.914 62.0217 158.454 62.0657C158.998 62.0962 159.483 62.3135 159.873 62.5323C160.266 62.7457 160.637 62.9156 160.973 62.9195C161.306 62.9142 161.58 62.7365 161.738 62.557C161.901 62.3735 161.949 62.1732 161.94 62.043C161.936 61.9104 161.898 61.8445 161.912 61.8392Z" fill="#455A64"/>
</g>
<g id="Group_181">
<path id="Vector_81" d="M159.307 60.4433C157.788 60.0774 156.621 58.5078 156.66 56.8826C156.698 55.2573 157.938 53.7501 159.472 53.4631C160.213 53.3247 161.07 53.496 161.515 54.1291C161.941 54.735 161.913 55.6396 162.457 56.1328C163.038 56.6609 163.931 56.4334 164.684 56.6033C165.852 56.8661 166.633 58.201 166.5 59.439C166.367 60.6771 165.456 61.7347 164.351 62.2066C163.246 62.6789 161.983 62.6257 160.836 62.2782C159.689 61.9307 158.638 61.3068 157.623 60.65" fill="#263238"/>
<g id="Group_182">
<path id="Vector_82" d="M164.898 56.9344C164.922 56.9416 164.845 57.307 164.557 57.8249C164.273 58.3418 163.743 58.9875 162.997 59.4754C162.248 59.9598 161.459 60.1718 160.889 60.2101C160.316 60.2512 159.968 60.1626 159.972 60.1375C159.975 60.0939 160.324 60.1176 160.869 60.0329C161.414 59.9511 162.155 59.7227 162.869 59.2614C163.58 58.7958 164.102 58.2034 164.413 57.7291C164.726 57.2548 164.86 56.9179 164.898 56.9344Z" fill="#455A64"/>
</g>
</g>
<g id="Group_183">
<path id="Vector_83" d="M162.435 62.3014C162.375 62.3547 161.664 61.1171 160.232 60.2754C158.812 59.4091 157.43 59.3926 157.444 59.3113C157.443 59.2832 157.784 59.245 158.329 59.3224C158.873 59.3979 159.619 59.6191 160.352 60.0567C161.084 60.4966 161.642 61.0566 161.979 61.5087C162.319 61.9612 162.459 62.2874 162.435 62.3014Z" fill="#F55656"/>
</g>
</g>
<g id="Group_184">
<path id="Vector_84" d="M128.626 115.014L121.124 113.491L122.477 115.5L119.255 117.177L116.565 115.864C116.565 115.864 116.761 116.478 117.349 117.504C117.938 118.529 118.723 119.349 119.233 119.39C119.997 119.452 120.133 119.463 119.233 119.39C119.233 119.39 119.398 120.343 120.229 121.268C120.725 121.82 122.03 122.689 123.619 122.247L128.671 120.343L128.626 115.014Z" fill="#FFBE9D"/>
<g id="Group_185">
<path id="Vector_85" d="M121.04 118.948C121.086 118.994 120.671 119.398 120.003 119.475C119.337 119.559 118.844 119.263 118.879 119.208C118.904 119.139 119.383 119.302 119.976 119.225C120.57 119.159 121.001 118.886 121.04 118.948Z" fill="#EB996E"/>
</g>
<g id="Group_186">
<path id="Vector_86" d="M122.021 120.62C122.068 120.664 121.746 121.044 121.188 121.193C120.629 121.348 120.171 121.18 120.191 121.117C120.204 121.045 120.632 121.088 121.126 120.949C121.623 120.819 121.976 120.563 122.021 120.62Z" fill="#EB996E"/>
</g>
<g id="Group_187">
<path id="Vector_87" d="M123.923 114.691C123.934 114.727 123.666 114.842 123.267 115.088C122.864 115.329 122.346 115.725 121.751 116.15C121.155 116.574 120.556 116.891 120.088 117.016C119.621 117.148 119.318 117.119 119.318 117.09C119.315 117.05 119.604 117.015 120.035 116.847C120.469 116.684 121.028 116.359 121.616 115.941C122.204 115.522 122.752 115.138 123.187 114.931C123.619 114.717 123.915 114.661 123.923 114.691Z" fill="#EB996E"/>
</g>
</g>
<g id="Group_188">
<path id="Vector_88" d="M169.545 128.037C169.545 128.037 169.802 128.204 170.441 129.392C172.405 133.046 173.198 141.804 165.794 149.617C156.223 159.717 145.019 176.237 145.019 176.237L136.222 215.034L122.933 212.032L129.781 171.706L148.561 135.37L169.545 128.037Z" fill="#263238"/>
<path id="Vector_89" d="M184.205 203.127L163.733 170.446L157.522 142.237L141.711 150.342L149.641 178.975L174.942 211.849L184.205 203.127Z" fill="#263238"/>
<g id="Group_189">
<path id="Vector_90" d="M136.222 215.034C136.217 215.033 136.228 214.968 136.252 214.842C136.28 214.705 136.318 214.521 136.366 214.286C136.474 213.785 136.629 213.069 136.826 212.154C137.239 210.291 137.832 207.618 138.563 204.321C140.055 197.701 142.111 188.578 144.381 178.501C144.56 177.716 144.736 176.936 144.902 176.208L144.908 176.182L144.924 176.16C150.727 168.421 156.009 161.571 159.9 156.706C161.847 154.276 163.438 152.335 164.565 151.023C165.121 150.359 165.574 149.866 165.874 149.525C166.019 149.364 166.134 149.238 166.22 149.143C166.299 149.057 166.34 149.015 166.343 149.018C166.346 149.021 166.31 149.069 166.237 149.16C166.155 149.258 166.047 149.39 165.908 149.558C165.619 149.909 165.178 150.413 164.633 151.086C163.528 152.416 161.957 154.374 160.027 156.817C156.171 161.708 150.912 168.575 145.114 176.315L145.136 176.267C144.971 176.995 144.794 177.774 144.616 178.56C142.319 188.63 140.238 197.747 138.729 204.363C137.966 207.652 137.348 210.318 136.917 212.177C136.7 213.088 136.531 213.8 136.413 214.299C136.355 214.531 136.309 214.714 136.276 214.849C136.244 214.972 136.226 215.035 136.222 215.034Z" fill="#455A64"/>
</g>
<g id="Group_190">
<path id="Vector_91" d="M160.229 138.353C160.235 138.367 160.123 138.438 159.907 138.537C159.691 138.637 159.368 138.757 158.955 138.858C158.136 139.062 156.926 139.141 155.671 138.76C154.416 138.379 153.435 137.635 152.85 137.003C152.553 136.687 152.342 136.405 152.212 136.2C152.081 135.995 152.022 135.873 152.035 135.864C152.07 135.838 152.36 136.29 152.968 136.875C153.57 137.458 154.531 138.151 155.739 138.517C156.947 138.884 158.113 138.838 158.921 138.682C159.736 138.53 160.213 138.312 160.229 138.353Z" fill="#455A64"/>
</g>
</g>
<g id="Group_191">
<path id="Vector_92" d="M171.516 129.687C163.511 134.085 150.51 136.714 146.357 134.929L146.211 118.838C146.211 118.838 140.515 109.044 140.494 105.341C140.464 100.004 146.833 87.8344 146.833 87.8344L156.395 85.1903C158.645 85.1801 160.465 85.7173 161.93 86.5295C165.613 88.5705 167.621 92.8607 167.206 97.1891L164.798 113.195L171.516 129.687Z" fill="#F55656"/>
<g id="Group_192" opacity="0.3">
<path id="Vector_93" d="M161.255 86.5145C161.81 86.4264 162.017 87.374 161.619 87.7864C161.221 88.1988 160.601 88.222 160.046 88.3125C157.556 88.7186 155.631 90.9445 154.724 93.3969C153.817 95.8494 153.733 98.5341 153.584 101.158C153.435 103.783 153.189 106.485 152.006 108.807C149.807 104.738 149.463 99.6299 151.098 95.2812C152.733 90.9324 156.312 87.4287 160.577 86.0038" fill="black"/>
</g>
<path id="Vector_94" d="M161.93 86.5295C161.93 86.5295 160.555 84.1622 155.938 85.1903C152.854 85.877 146.117 92.6264 147.997 103.475C149.876 114.325 154.915 118.163 154.915 118.163C154.915 118.163 150.279 101.557 152.854 94.3098C155.428 87.0628 161.93 86.5295 161.93 86.5295Z" fill="#263238"/>
<g id="Group_193" opacity="0.3">
<path id="Vector_95" d="M146.387 122.278C148.293 122.919 150.122 123.716 152.107 123.993C154.092 124.27 156.168 124.164 158.011 123.347C160.559 122.216 162.452 119.792 163.427 117.089C164.402 114.385 164.535 111.42 164.276 108.543C162.533 110.787 162.745 114.114 161.265 116.555C160.338 118.082 158.829 119.122 157.28 119.932C153.905 121.696 150.16 122.366 146.387 122.278Z" fill="black"/>
</g>
<path id="Vector_96" d="M152.121 105.839C152.121 105.839 151.5 118.055 165.787 115.623L167.227 119.157C167.227 119.157 152.205 122.466 150.076 109.492L152.121 105.839Z" fill="#263238"/>
<g id="Group_194">
<path id="Vector_97" d="M165.14 90.6515C166.388 92.5076 166.712 94.8744 166.2 97.0771L162.642 113.694C161.113 118.37 156.756 121.207 154.049 121.588L128.671 124.378V114.512L152.228 110.862L153.332 97.4057C153.429 95.5955 154.286 92.3426 155.389 90.9419C156.623 89.3761 158.521 87.2456 161.619 87.7872C163.52 88.1187 164.324 89.4366 165.14 90.6515Z" fill="#F55656"/>
<g id="Group_195">
<path id="Vector_98" d="M165.877 97.7244C165.885 97.7254 165.875 97.8546 165.85 98.0995C165.826 98.3444 165.783 98.7045 165.723 99.1682C165.603 100.095 165.414 101.434 165.134 103.08C164.856 104.727 164.487 106.681 164.011 108.837C163.771 109.913 163.518 111.043 163.21 112.206C162.898 113.366 162.521 114.562 161.966 115.713C161.416 116.865 160.688 117.901 159.82 118.716C158.958 119.537 157.994 120.167 157.027 120.636C155.086 121.586 153.164 121.934 151.573 122.114C149.974 122.285 148.674 122.294 147.779 122.303C147.349 122.301 147.006 122.3 146.747 122.299C146.511 122.294 146.387 122.287 146.387 122.279C146.387 122.27 146.51 122.26 146.746 122.248C147.004 122.237 147.347 122.223 147.777 122.206C148.671 122.166 149.968 122.129 151.554 121.937C153.133 121.736 155.029 121.372 156.932 120.426C157.881 119.959 158.821 119.337 159.66 118.535C160.505 117.736 161.21 116.73 161.75 115.599C162.295 114.47 162.67 113.29 162.982 112.138C163.292 110.985 163.55 109.856 163.795 108.783C164.281 106.635 164.667 104.688 164.966 103.047C165.267 101.408 165.482 100.074 165.63 99.1532C165.702 98.7113 165.759 98.3585 165.802 98.0923C165.843 97.8498 165.869 97.723 165.877 97.7244Z" fill="#263238"/>
</g>
<g id="Group_196">
<path id="Vector_99" d="M152.912 113.694C152.848 113.715 152.592 113.072 152.34 112.257C152.088 111.441 151.934 110.763 151.998 110.742C152.061 110.72 152.317 111.364 152.57 112.179C152.822 112.994 152.976 113.672 152.912 113.694Z" fill="#263238"/>
</g>
<g id="Group_197">
<path id="Vector_100" d="M154.355 113.315C154.318 113.369 153.687 112.957 153.06 112.265C152.43 111.576 152.067 110.897 152.121 110.862C152.179 110.821 152.621 111.421 153.235 112.091C153.845 112.765 154.396 113.257 154.355 113.315Z" fill="#263238"/>
</g>
<g id="Group_198">
<path id="Vector_101" d="M130.88 114.169C130.88 114.165 130.916 114.155 130.986 114.14C131.07 114.124 131.174 114.104 131.301 114.08C131.596 114.028 132.002 113.958 132.517 113.869C133.597 113.692 135.131 113.441 137.031 113.131C140.879 112.524 146.207 111.683 152.21 110.737L152.108 110.849C152.192 109.931 152.281 108.961 152.371 107.977C152.676 104.484 152.997 101.162 153.154 98.1271C153.272 96.6025 153.547 95.1713 153.943 93.8752C154.339 92.5839 154.859 91.4058 155.601 90.524C157.107 88.815 158.789 87.9084 160.029 87.7453C160.646 87.6509 161.132 87.7163 161.452 87.7719C161.611 87.8082 161.73 87.8465 161.811 87.8692C161.891 87.8929 161.931 87.9075 161.93 87.9113C161.928 87.9612 161.26 87.6461 160.043 87.8426C158.836 88.0299 157.194 88.9466 155.73 90.6416C155.021 91.4997 154.516 92.6613 154.134 93.9381C153.752 95.2192 153.486 96.6393 153.376 98.1441C153.231 101.179 152.917 104.509 152.611 108.001C152.521 108.984 152.431 109.955 152.347 110.872L152.338 110.97L152.245 110.984C146.238 111.898 140.906 112.71 137.055 113.296C135.15 113.574 133.613 113.8 132.531 113.958C132.013 114.028 131.605 114.084 131.308 114.125C131.179 114.14 131.074 114.152 130.99 114.162C130.918 114.171 130.881 114.173 130.88 114.169Z" fill="#263238"/>
</g>
</g>
<g id="Group_199">
<path id="Vector_102" d="M145.405 122.222C145.339 122.228 145.07 119.99 144.804 117.222C144.539 114.454 144.378 112.205 144.444 112.197C144.51 112.191 144.78 114.429 145.045 117.197C145.31 119.965 145.471 122.215 145.405 122.222Z" fill="#FAFAFA"/>
</g>
<g id="Group_200">
<path id="Vector_103" d="M163.98 107.218C163.98 107.253 163.364 107.26 162.367 107.244C161.371 107.228 159.995 107.189 158.475 107.129C156.955 107.069 155.58 107.002 154.586 106.94C153.591 106.878 152.978 106.823 152.979 106.788C152.981 106.753 153.599 106.746 154.595 106.762C155.591 106.778 156.967 106.817 158.485 106.877C160.003 106.936 161.377 107.004 162.371 107.066C163.366 107.127 163.981 107.183 163.98 107.218Z" fill="#FAFAFA"/>
</g>
<g id="Group_201">
<path id="Vector_104" d="M147.872 104.074C147.874 104.107 147.473 104.168 146.821 104.218C146.168 104.268 145.264 104.301 144.265 104.281C143.267 104.26 142.364 104.19 141.714 104.113C141.064 104.037 140.666 103.959 140.669 103.926C140.673 103.89 141.077 103.905 141.727 103.936C142.378 103.967 143.277 104.008 144.27 104.029C145.263 104.049 146.162 104.044 146.814 104.04C147.466 104.036 147.87 104.037 147.872 104.074Z" fill="#FAFAFA"/>
</g>
<g id="Group_202">
<path id="Vector_105" d="M149.969 92.579C149.934 92.6438 148.959 92.11 147.694 91.6129C146.431 91.1096 145.362 90.8342 145.377 90.7616C145.387 90.6977 146.495 90.8661 147.78 91.3777C149.066 91.883 150.002 92.5238 149.969 92.579Z" fill="#FAFAFA"/>
</g>
<g id="Group_203">
<path id="Vector_106" d="M168.399 122.778C168.401 122.786 168.33 122.823 168.191 122.886C168.026 122.957 167.824 123.043 167.58 123.148C167.047 123.374 166.268 123.677 165.299 124.03C163.36 124.738 160.641 125.606 157.584 126.338C154.525 127.067 151.715 127.519 149.673 127.762C148.653 127.885 147.825 127.965 147.252 128.003C146.988 128.02 146.771 128.033 146.592 128.045C146.44 128.051 146.361 128.05 146.36 128.042C146.36 128.033 146.437 128.017 146.587 127.994C146.765 127.97 146.981 127.941 147.243 127.906C147.813 127.837 148.636 127.73 149.652 127.585C151.683 127.298 154.48 126.819 157.53 126.093C160.578 125.363 163.295 124.524 165.244 123.861C166.219 123.531 167.006 123.253 167.547 123.056C167.797 122.969 168.004 122.897 168.174 122.838C168.318 122.791 168.396 122.77 168.399 122.778Z" fill="#FAFAFA"/>
</g>
<g id="Group_204">
<path id="Vector_107" d="M166.885 93.8311C166.883 93.9008 164.148 93.865 160.776 93.7512C157.404 93.6375 154.672 93.4889 154.675 93.4197C154.677 93.35 157.412 93.3858 160.784 93.4995C164.156 93.6133 166.888 93.7619 166.885 93.8311Z" fill="#FAFAFA"/>
</g>
<g id="Group_205">
<path id="Vector_108" d="M134.191 123.658C134.124 123.66 133.99 121.498 133.892 118.829C133.793 116.159 133.768 113.993 133.835 113.991C133.902 113.988 134.035 116.15 134.134 118.82C134.232 121.489 134.257 123.655 134.191 123.658Z" fill="#FAFAFA"/>
</g>
</g>
</g>
</g>
<g id="Character_1">
<g id="Group_206">
<g id="Group_207">
<g id="Group_208">
<g id="Group_209">
<path id="Vector_109" d="M82.2816 74.1595C86.3815 73.3517 90.7051 73.8221 94.5567 75.4948C96.2805 76.2436 97.9857 77.3035 98.9174 78.9912C100.019 80.9877 99.8375 83.4465 99.7187 85.7469C99.477 90.4257 99.6338 95.1264 100.186 99.7766C100.645 103.648 101.38 107.502 101.367 111.403C101.355 115.303 100.518 119.349 98.1736 122.387C94.56 127.071 88.1211 128.384 82.4074 127.589C79.3997 127.17 76.3967 126.231 73.9454 124.365C71.4941 122.5 69.6492 119.617 69.4404 116.46" fill="#455A64"/>
</g>
</g>
<g id="Group_210">
<g id="Group_211">
<path id="Vector_110" d="M89.4356 80.0928C89.3929 80.1306 90.1386 80.8004 90.7909 82.2563C91.1227 82.9775 91.4224 83.8796 91.7101 84.9014C92.0048 85.9202 92.2962 87.0644 92.7829 88.2081C93.2715 89.3479 93.9508 90.357 94.7837 91.0356C95.6063 91.7296 96.5803 92.0186 97.3728 91.9987C98.1727 91.991 98.7949 91.7234 99.1545 91.4596C99.3387 91.3323 99.4654 91.2093 99.542 91.1188C99.6195 91.0288 99.6557 90.9785 99.6482 90.9712C99.6283 90.9494 99.4608 91.1338 99.0924 91.3536C98.7286 91.5743 98.13 91.793 97.3751 91.7727C96.6225 91.7611 95.7302 91.4736 94.96 90.8052C94.1828 90.1523 93.5369 89.1838 93.0631 88.0774C92.5894 86.9656 92.291 85.834 91.9806 84.8152C91.6767 83.7935 91.3496 82.8797 90.9858 82.1561C90.6262 81.4301 90.2425 80.8948 89.9441 80.5618C89.6449 80.2269 89.4472 80.0793 89.4356 80.0928Z" fill="#263238"/>
</g>
</g>
<g id="Group_212">
<g id="Group_213">
<path id="Vector_111" d="M91.0735 127.29C91.0841 127.291 91.1078 127.159 91.143 126.908C91.1792 126.623 91.2261 126.258 91.2836 125.807C91.4001 124.85 91.5518 123.464 91.7258 121.749C92.0748 118.32 92.4956 113.576 92.8534 108.327C93.2097 103.077 93.4357 98.3174 93.5549 94.8708C93.6148 93.1478 93.6524 91.7529 93.6667 90.7888C93.6709 90.3343 93.6742 89.966 93.677 89.6785C93.676 89.4244 93.67 89.2908 93.6598 89.2908C93.6491 89.2903 93.6343 89.4234 93.6152 89.6765C93.5976 89.9635 93.5753 90.3309 93.5475 90.7844C93.496 91.7877 93.425 93.17 93.3387 94.8611C93.1642 98.3033 92.9044 103.057 92.548 108.305C92.1903 113.55 91.8038 118.294 91.5105 121.727C91.3672 123.414 91.2502 124.793 91.1653 125.794C91.131 126.247 91.1036 126.614 91.0823 126.901C91.066 127.155 91.0628 127.288 91.0735 127.29Z" fill="#263238"/>
</g>
</g>
<g id="Group_214">
<g id="Group_215">
<path id="Vector_112" d="M92.9054 106.271C92.8966 106.356 94.6983 106.616 96.938 106.674C99.1782 106.737 100.99 106.575 100.986 106.49C100.982 106.399 99.1736 106.417 96.9459 106.354C94.7192 106.297 92.9138 106.18 92.9054 106.271Z" fill="#263238"/>
</g>
</g>
<g id="Group_216">
<g id="Group_217">
<path id="Vector_113" d="M94.366 106.454C94.3284 106.439 94.1651 106.756 93.992 107.308C93.9062 107.584 93.8194 107.915 93.7507 108.296C93.7192 108.489 93.6918 108.714 93.7591 108.954C93.8255 109.2 94.0268 109.425 94.3066 109.475C94.4472 109.5 94.6143 109.453 94.7182 109.351C94.8282 109.25 94.882 109.116 94.908 108.998C94.9595 108.757 94.9302 108.547 94.9149 108.358C94.8773 107.973 94.8077 107.631 94.7312 107.352C94.5762 106.791 94.4022 106.477 94.3669 106.492C94.3238 106.509 94.4235 106.848 94.5201 107.403C94.5674 107.68 94.6124 108.012 94.6333 108.382C94.6426 108.569 94.6569 108.761 94.6161 108.924C94.5776 109.09 94.4806 109.179 94.3526 109.159C94.0366 109.101 93.9651 108.693 94.0296 108.341C94.0802 107.976 94.1438 107.643 94.2013 107.366C94.3173 106.813 94.4078 106.47 94.366 106.454Z" fill="#263238"/>
</g>
</g>
</g>
<g id="Group_218">
<g id="Group_219">
<path id="Vector_114" d="M78.0435 75.3302L97.4563 75.9991C99.9132 76.0838 101.971 74.0747 102.052 71.512L102.177 67.5751C102.258 65.0123 100.332 62.8658 97.8753 62.7811L78.4625 62.1122C76.0056 62.0275 73.9478 64.0366 73.8666 66.5994L73.7417 70.5362C73.6605 73.099 75.5866 75.2455 78.0435 75.3302Z" fill="#263238"/>
</g>
<g id="Group_220">
<g id="Group_221">
<path id="Vector_115" d="M97.4137 63.0372C97.4179 63.0284 97.3622 62.9868 97.2457 62.9278C97.1292 62.8692 96.9474 62.8 96.7028 62.754C96.2207 62.6616 95.4551 62.7037 94.6691 63.1499C93.9035 63.5807 92.9959 64.2234 92.3723 65.2815C91.7334 66.3138 91.3803 67.6473 91.2838 69.0368C91.1604 70.4395 91.455 71.8121 92.0285 72.8803C92.5969 73.9586 93.4386 74.7098 94.2274 75.1188C95.019 75.5379 95.7424 75.6633 96.2309 75.6715C96.4764 75.6807 96.6671 75.6623 96.7942 75.6424C96.9218 75.6221 96.9873 75.6062 96.9863 75.595C96.984 75.5665 96.7154 75.595 96.2384 75.5471C95.7646 75.5016 95.0747 75.3453 94.3285 74.9189C93.5834 74.4997 92.8038 73.7718 92.2758 72.7389C91.7436 71.7129 91.4708 70.4109 91.5891 69.0615C91.6842 67.7048 92.0155 66.4305 92.6117 65.4373C93.1839 64.4316 94.0418 63.7917 94.7712 63.3489C95.5066 62.8992 96.2189 62.8271 96.6861 62.8769C97.1599 62.9297 97.4025 63.0662 97.4137 63.0372Z" fill="#455A64"/>
</g>
</g>
<g id="Group_222">
<path id="Vector_116" d="M86.485 62.3397L89.4379 62.496C88.632 62.5976 87.8947 63.0695 87.3546 63.7016C86.8145 64.3337 86.4581 65.1169 86.215 65.9251C85.1905 69.3349 86.428 73.371 89.0194 75.7082L86.6312 75.6666C86.6312 75.6666 80.8154 68.3519 86.485 62.3397Z" fill="#455A64"/>
</g>
</g>
</g>
<g id="Group_223">
<g id="Group_224">
<path id="Vector_117" d="M72.0615 56.5399C70.856 53.499 70.7924 48.2088 72.6359 45.4278C74.4794 42.6467 77.9292 40.8104 81.0984 40.0999C81.6278 39.9813 82.198 39.9015 82.6973 40.1207C83.1966 40.3404 83.5692 40.9619 83.3552 41.4812C83.9919 41.0664 84.6438 40.6449 85.3755 40.4697C86.1072 40.2945 86.9461 40.4077 87.4844 40.9537C88.0226 41.4996 88.1071 42.531 87.5368 43.0402C88.4207 42.7038 89.4856 42.9652 90.1329 43.6776C90.7802 44.3901 90.9732 45.513 90.6034 46.4156C90.2494 47.28 89.4968 48.2456 88.8328 48.8806C88.1683 49.5156 88.0588 50.1748 88.1683 51.108" fill="#263238"/>
</g>
<g id="Group_225">
<g id="Group_226">
<g id="Group_227">
<g id="Group_228">
<g id="Group_229">
<g id="Group_230">
<g id="Group_231">
<g id="Group_232">
<g id="Group_233">
<g id="Group_234">
<g id="Group_235">
<g id="Group_236">
<g id="Group_237">
<g id="Group_238">
<g id="Group_239">
<g id="Group_240">
<path id="Vector_118" d="M72.8219 50.9618L71.983 69.5837C71.8406 72.7505 74.2673 75.3975 77.3065 75.3898C80.1429 75.3825 82.4745 73.0511 82.6044 70.0958C82.6662 68.6941 82.7204 67.5253 82.7358 67.3815C82.7358 67.3815 87.3006 67.1584 87.8402 62.4825C88.101 60.2227 88.2745 55.523 88.3845 51.2692C88.5028 46.7007 85.2321 42.8055 80.8765 42.3157L80.4436 42.2668C75.7442 42.0262 72.9226 46.055 72.8219 50.9618Z" fill="#FFBE9D"/>
</g>
</g>
</g>
</g>
</g>
</g>
</g>
</g>
</g>
<g id="Group_241">
<g id="Group_242">
<g id="Group_243">
<g id="Group_244">
<g id="Group_245">
<g id="Group_246">
<g id="Group_247">
<g id="Group_248">
<g id="Group_249">
<path id="Vector_119" d="M82.7502 67.3148C82.7502 67.3148 79.8887 67.2364 77.0778 64.9214C77.0778 64.9214 77.9728 67.851 82.4954 67.9333L82.7502 67.3148Z" fill="#EB996E"/>
</g>
</g>
</g>
</g>
</g>
</g>
</g>
</g>
</g>
</g>
</g>
</g>
<g id="Group_250">
<g id="Group_251">
<g id="Group_252">
<g id="Group_253">
<g id="Group_254">
<g id="Group_255">
<g id="Group_256">
<g id="Group_257">
<g id="Group_258">
<g id="Group_259">
<g id="Group_260">
<g id="Group_261">
<g id="Group_262">
<g id="Group_263">
<g id="Group_264">
<path id="Vector_120" d="M86.7526 54.2583C86.728 54.6126 86.4204 54.8832 86.065 54.8633C85.7105 54.8435 85.4418 54.5405 85.4664 54.1862C85.491 53.8319 85.7991 53.5609 86.1536 53.5807C86.509 53.6001 86.7772 53.9036 86.7526 54.2583Z" fill="#263238"/>
</g>
</g>
</g>
</g>
</g>
</g>
</g>
</g>
</g>
<g id="Group_265">
<g id="Group_266">
<g id="Group_267">
<g id="Group_268">
<g id="Group_269">
<g id="Group_270">
<g id="Group_271">
<g id="Group_272">
<g id="Group_273">
<g id="Group_274">
<path id="Vector_121" d="M87.1827 53.4588C87.0941 53.5367 86.6473 53.1074 85.9573 53.0319C85.2692 52.9457 84.7245 53.2594 84.6591 53.1626C84.6261 53.1195 84.7236 52.9709 84.9611 52.8286C85.1954 52.6863 85.5824 52.5658 86.0116 52.6161C86.4408 52.667 86.7856 52.8727 86.9758 53.0648C87.1707 53.2584 87.2259 53.4239 87.1827 53.4588Z" fill="#263238"/>
</g>
</g>
</g>
</g>
</g>
</g>
</g>
</g>
</g>
</g>
</g>
<g id="Group_275">
<g id="Group_276">
<g id="Group_277">
<g id="Group_278">
<g id="Group_279">
<g id="Group_280">
<g id="Group_281">
<g id="Group_282">
<g id="Group_283">
<g id="Group_284">
<path id="Vector_122" d="M79.9623 53.7414C79.9377 54.0957 79.6296 54.3663 79.2747 54.3464C78.9202 54.3266 78.6515 54.0236 78.6761 53.6693C78.7007 53.315 79.0088 53.044 79.3633 53.0638C79.7183 53.0837 79.9865 53.3871 79.9623 53.7414Z" fill="#263238"/>
</g>
</g>
</g>
</g>
</g>
</g>
</g>
</g>
</g>
<g id="Group_285">
<g id="Group_286">
<g id="Group_287">
<g id="Group_288">
<g id="Group_289">
<g id="Group_290">
<g id="Group_291">
<g id="Group_292">
<g id="Group_293">
<g id="Group_294">
<path id="Vector_123" d="M80.3883 52.83C80.2997 52.9085 79.852 52.4787 79.1629 52.4032C78.4748 52.317 77.9301 52.6302 77.8646 52.5338C77.8322 52.4908 77.9282 52.3427 78.1672 52.1999C78.4015 52.0576 78.788 51.9371 79.2177 51.9869C79.6473 52.0377 79.9916 52.2434 80.1819 52.4356C80.3754 52.6297 80.4315 52.7952 80.3883 52.83Z" fill="#263238"/>
</g>
</g>
</g>
</g>
</g>
</g>
</g>
</g>
</g>
</g>
</g>
<g id="Group_295">
<g id="Group_296">
<g id="Group_297">
<g id="Group_298">
<g id="Group_299">
<g id="Group_300">
<g id="Group_301">
<g id="Group_302">
<g id="Group_303">
<g id="Group_304">
<path id="Vector_124" d="M82.3403 58.4478C82.3413 58.4067 82.7779 58.3776 83.4822 58.3631C83.6604 58.3641 83.8307 58.3462 83.8734 58.2242C83.9286 58.096 83.8753 57.8898 83.8122 57.6662C83.6924 57.203 83.5672 56.7175 83.4358 56.2084C82.9185 54.1349 82.564 52.4385 82.6443 52.4172C82.7245 52.3964 83.209 54.0599 83.7263 56.1329C83.8497 56.6435 83.9681 57.1304 84.0799 57.5965C84.1249 57.8128 84.2149 58.0626 84.0966 58.3278C84.0349 58.4599 83.8952 58.5446 83.7792 58.564C83.6627 58.5872 83.5634 58.578 83.4757 58.5737C82.7728 58.5345 82.3385 58.489 82.3403 58.4478Z" fill="#263238"/>
</g>
</g>
</g>
</g>
</g>
</g>
</g>
</g>
</g>
</g>
<g id="Group_305">
<g id="Group_306">
<g id="Group_307">
<g id="Group_308">
<g id="Group_309">
<g id="Group_310">
<g id="Group_311">
<g id="Group_312">
<g id="Group_313">
<g id="Group_314">
<path id="Vector_125" d="M80.2589 58.717C80.3717 58.7228 80.2923 59.5039 80.8761 60.1302C81.4584 60.7585 82.2653 60.7604 82.2602 60.8703C82.2657 60.9206 82.0667 61.0019 81.7289 60.9738C81.3971 60.9487 80.9262 60.7836 80.5689 60.4003C80.213 60.0165 80.0919 59.5436 80.0993 59.2203C80.1044 58.8907 80.2079 58.7068 80.2589 58.717Z" fill="#263238"/>
</g>
</g>
</g>
</g>
</g>
</g>
</g>
</g>
</g>
</g>
</g>
</g>
</g>
<g id="Group_315">
<g id="Group_316">
<g id="Group_317">
<g id="Group_318">
<g id="Group_319">
<g id="Group_320">
<g id="Group_321">
<g id="Group_322">
<g id="Group_323">
<path id="Vector_126" d="M80.8584 50.0301C80.7702 50.2179 80.0909 50.048 79.271 50.0587C78.4507 50.0524 77.7728 50.2262 77.6837 50.0384C77.6442 49.9488 77.7774 49.778 78.0609 49.6182C78.3421 49.4585 78.7778 49.3259 79.2696 49.324C79.761 49.3235 80.1976 49.4537 80.4797 49.612C80.7632 49.7702 80.8969 49.9411 80.8584 50.0301Z" fill="#263238"/>
</g>
</g>
</g>
</g>
</g>
</g>
</g>
</g>
</g>
<g id="Group_324">
<g id="Group_325">
<g id="Group_326">
<g id="Group_327">
<g id="Group_328">
<g id="Group_329">
<g id="Group_330">
<g id="Group_331">
<g id="Group_332">
<path id="Vector_127" d="M87.1442 51.3476C87.0059 51.4976 86.5484 51.2745 85.9777 51.2019C85.4098 51.1089 84.911 51.1932 84.8173 51.0097C84.7769 50.9212 84.8701 50.7663 85.0975 50.6351C85.3216 50.5044 85.6831 50.4178 86.0747 50.4739C86.4658 50.5311 86.7911 50.7174 86.9725 50.9071C87.1572 51.0983 87.2064 51.274 87.1442 51.3476Z" fill="#263238"/>
</g>
</g>
</g>
</g>
</g>
</g>
</g>
</g>
</g>
</g>
</g>
</g>
</g>
</g>
<g id="Group_333">
<g id="Group_334">
<g id="Group_335">
<g id="Group_336">
<g id="Group_337">
<g id="Group_338">
<g id="Group_339">
<g id="Group_340">
<g id="Group_341">
<g id="Group_342">
<path id="Vector_128" d="M72.8299 54.4699C72.757 54.4268 69.844 53.1713 69.6111 56.3836C69.3782 59.5954 72.5176 59.1768 72.5297 59.0853C72.5417 58.9933 72.8299 54.4699 72.8299 54.4699Z" fill="#FFBE9D"/>
</g>
</g>
</g>
</g>
</g>
</g>
</g>
</g>
</g>
<g id="Group_343">
<g id="Group_344">
<g id="Group_345">
<g id="Group_346">
<g id="Group_347">
<g id="Group_348">
<g id="Group_349">
<g id="Group_350">
<g id="Group_351">
<g id="Group_352">
<path id="Vector_129" d="M71.6778 57.7939C71.6648 57.7828 71.6212 57.8288 71.5275 57.8651C71.436 57.9004 71.282 57.9174 71.1256 57.8419C70.8092 57.6918 70.5744 57.1314 70.6013 56.551C70.6148 56.2582 70.6936 55.9843 70.8096 55.7616C70.9205 55.5342 71.0783 55.3812 71.2444 55.3638C71.4101 55.3372 71.5186 55.449 71.5497 55.5419C71.5845 55.6348 71.5604 55.6973 71.5762 55.7045C71.5841 55.7132 71.6462 55.6561 71.6309 55.5211C71.623 55.4562 71.5924 55.3778 71.5242 55.3101C71.4551 55.2413 71.3484 55.2012 71.2333 55.205C70.9948 55.2036 70.7642 55.4146 70.6366 55.659C70.496 55.9034 70.4009 56.2108 70.3855 56.5394C70.3582 57.188 70.6319 57.8191 71.0676 57.988C71.2801 58.064 71.4657 58.0103 71.5646 57.9416C71.6667 57.8714 71.688 57.8007 71.6778 57.7939Z" fill="#EB996E"/>
</g>
</g>
</g>
</g>
</g>
</g>
</g>
</g>
</g>
</g>
</g>
<g id="Group_353">
<g id="Group_354">
<path id="Vector_130" d="M90.7932 45.3644C90.8479 49.5573 85.8038 50.9033 83.8165 48.4029C82.8978 47.2467 82.1257 45.8315 80.8028 45.2381C79.9124 44.8388 78.8675 44.9312 77.9733 45.3223C77.9645 45.3262 77.9557 45.33 77.9464 45.3339C76.6277 45.9205 75.7661 47.3933 75.4612 48.854C75.0362 50.8912 75.219 52.7323 74.568 54.5817C74.4748 54.8474 74.3662 55.1325 74.1346 55.2801C73.7416 55.5303 73.2215 55.2419 72.9408 54.861C72.4912 54.2511 72.3756 53.4477 72.3241 52.6801C72.2067 50.9318 72.3487 49.1498 72.8907 47.4911C73.4326 45.8324 74.3885 44.3001 75.7206 43.2319C77.385 41.897 79.5806 41.3545 81.6644 41.6231C83.7483 41.8912 85.7096 42.9391 87.2399 44.4385C87.9498 45.134 88.5859 45.95 88.8903 46.9151" fill="#263238"/>
</g>
</g>
</g>
<g id="Group_355">
<g id="Group_356">
<path id="Vector_131" d="M87.7006 42.8137C87.7006 42.8045 87.8565 42.7876 88.1252 42.8665C88.3915 42.9434 88.7646 43.1467 89.0991 43.5382C89.4286 43.9269 89.7163 44.514 89.7446 45.2168C89.7733 45.9195 89.4945 46.6794 89.0008 47.2859C88.5048 47.8942 87.8603 48.3018 87.2353 48.5084C86.6102 48.7219 86.0163 48.7693 85.5273 48.7635C85.0364 48.7529 84.6443 48.6914 84.377 48.6348C84.1097 48.5781 83.9664 48.5283 83.9692 48.5133C83.9757 48.4683 84.5677 48.6062 85.5259 48.5888C86.0024 48.5728 86.5736 48.508 87.1647 48.2926C87.7549 48.0849 88.3544 47.6958 88.8193 47.1261C89.2801 46.5594 89.5409 45.861 89.526 45.223C89.5121 44.5827 89.2629 44.0281 88.9711 43.651C88.6746 43.2716 88.3396 43.0576 88.0946 42.957C87.8487 42.8548 87.6974 42.8384 87.7006 42.8137Z" fill="#455A64"/>
</g>
</g>
<g id="Group_357">
<g id="Group_358">
<path id="Vector_132" d="M85.7481 41.1787C85.7481 41.1662 85.8636 41.1521 86.0376 41.2562C86.206 41.3593 86.413 41.6056 86.4673 41.9803C86.5216 42.3563 86.3805 42.7953 86.1425 43.1912C85.904 43.5871 85.5963 43.9942 85.2094 44.3528C84.4396 45.0803 83.5538 45.4762 82.9005 45.633C82.2439 45.8009 81.8212 45.7603 81.8222 45.7371C81.8185 45.6925 82.2314 45.6703 82.856 45.4646C83.4791 45.27 84.3134 44.8654 85.0502 44.1694C85.421 43.8267 85.7202 43.441 85.9578 43.0702C86.193 42.7014 86.3271 42.3205 86.3012 42.0006C86.2752 41.6802 86.1174 41.4483 85.9847 41.3356C85.8478 41.2199 85.7434 41.1991 85.7481 41.1787Z" fill="#455A64"/>
</g>
</g>
</g>
<g id="Group_359">
<path id="Vector_133" d="M72.6986 86.9119L74.1449 75.9057L53.4054 80.2487L34.535 73.4243L29.438 78.8881L49.5194 89.6765C51.31 90.5685 53.328 90.8371 55.2758 90.4422L72.6986 86.9119Z" fill="#FFBE9D"/>
<path id="Vector_134" d="M34.5346 73.4248C34.5346 73.4248 27.3184 69.8238 26.8568 69.7033C26.5009 69.6104 21.0507 69.3083 18.5688 69.1743C17.5837 69.121 17.4376 70.6471 18.4152 70.7855C18.4454 70.7899 18.4765 70.7933 18.5085 70.7962C19.894 70.9167 22.9448 71.6403 22.9448 71.6403L21.5593 75.0254C21.4173 75.3719 21.5222 75.7746 21.8126 75.9987L26.0114 79.2376C27.1315 79.7671 28.4371 79.6345 29.4375 78.8886L31.2884 79.2841L34.5346 73.4248Z" fill="#FFBE9D"/>
<g id="Group_360">
<path id="Vector_135" d="M21.5382 75.2228C21.6709 75.8569 23.1181 77.1511 24.216 77.1477C24.4563 77.1472 24.7045 77.0741 24.8781 76.9008C25.0516 76.7276 25.1319 76.4425 25.0321 76.215C24.9667 76.0659 24.8382 75.9595 24.7143 75.8588C23.8949 75.1952 23.0759 74.5312 22.2565 73.8676" fill="#FFBE9D"/>
<g id="Group_361">
<path id="Vector_136" d="M22.2562 73.8676C22.2766 73.84 22.6673 74.1169 23.2826 74.5863C23.6102 74.8409 23.9693 75.1207 24.3554 75.4212C24.5572 75.5882 24.7632 75.7281 24.9883 75.9416C25.0978 76.0495 25.1952 76.2261 25.1952 76.4096C25.2008 76.5911 25.1391 76.7653 25.0347 76.9076C24.8119 77.1941 24.4677 77.2813 24.1767 77.2687C23.8807 77.2595 23.6106 77.1757 23.3717 77.0693C22.8924 76.8549 22.5133 76.5674 22.2261 76.2953C21.9384 76.0229 21.7412 75.762 21.6363 75.5606C21.5291 75.3583 21.525 75.2228 21.5384 75.2223C21.5584 75.218 21.5918 75.3341 21.7161 75.5079C21.8386 75.6821 22.047 75.9144 22.3374 76.1598C22.627 76.4042 23.0033 76.6651 23.4552 76.8539C23.6802 76.9478 23.9285 77.0175 24.1818 77.0218C24.4287 77.032 24.6964 76.9478 24.8444 76.7527C24.9943 76.5485 24.9971 76.2794 24.8198 76.1143C24.6417 75.9406 24.4087 75.7683 24.2194 75.6047C23.8445 75.2886 23.496 74.9948 23.1782 74.7272C22.5898 74.2214 22.2358 73.8952 22.2562 73.8676Z" fill="#EB996E"/>
</g>
</g>
<g id="Group_362">
<path id="Vector_137" d="M27.3681 77.1768C27.3468 77.1971 27.2062 77.0911 27.0545 76.8491C26.9027 76.61 26.7589 76.2252 26.7385 75.7819C26.7195 75.338 26.829 74.9412 26.9594 74.6885C27.0893 74.4334 27.2197 74.3139 27.2429 74.3323C27.3041 74.37 26.9343 74.9547 26.9798 75.7703C27.0062 76.5863 27.4257 77.1337 27.3681 77.1768Z" fill="#EB996E"/>
</g>
<g id="Group_363">
<path id="Vector_138" d="M24.4825 75.4389C24.7015 75.7941 25.1548 75.9708 25.5432 75.8522C25.9315 75.7336 26.2225 75.33 26.2234 74.9079C26.2248 74.3557 25.8011 73.9167 25.4081 73.5469C24.8059 72.9801 24.2036 72.4129 23.6013 71.8461" fill="#FFBE9D"/>
<g id="Group_364">
<path id="Vector_139" d="M23.6019 71.8464C23.6241 71.8208 23.9118 72.0492 24.3591 72.4393C24.6046 72.6591 24.8635 72.8904 25.1363 73.1344C25.4198 73.4035 25.7618 73.6716 26.0471 74.0646C26.1859 74.2611 26.2972 74.4886 26.3288 74.7325C26.3673 74.9736 26.3135 75.2238 26.2091 75.4159C26.0017 75.8118 25.5971 76.0055 25.2792 75.9774C24.9586 75.9585 24.7349 75.8007 24.618 75.6739C24.4978 75.5442 24.4714 75.4455 24.483 75.4392C24.4997 75.4276 24.5531 75.5055 24.6797 75.5999C24.8027 75.6933 25.0133 75.8051 25.2815 75.7993C25.5451 75.8007 25.8532 75.6299 26.0128 75.3061C26.184 74.9866 26.1107 74.5597 25.8523 74.2142C25.6008 73.8642 25.2639 73.5859 24.9869 73.3072C24.7266 73.0492 24.4793 72.8043 24.2445 72.572C23.8269 72.1475 23.5796 71.8721 23.6019 71.8464Z" fill="#EB996E"/>
</g>
</g>
<g id="Group_365">
<path id="Vector_140" d="M27.5736 71.5609C26.1203 71.921 24.7237 72.5304 23.4574 73.357C23.3818 73.4064 23.301 73.464 23.2769 73.5535C23.243 73.6789 23.3354 73.8023 23.4328 73.8836C23.8054 74.1939 24.3191 74.2466 24.7942 74.2055C25.2693 74.1644 25.7389 74.0424 26.2159 74.0535C27.0409 74.0724 27.8046 74.4843 28.5999 74.7132C29.3957 74.9417 30.365 74.9363 30.9111 74.2907" fill="#FFBE9D"/>
<g id="Group_366">
<path id="Vector_141" d="M30.9111 74.2902C30.9172 74.296 30.8916 74.3352 30.836 74.4063C30.777 74.4741 30.6819 74.5689 30.5362 74.659C30.2504 74.8463 29.753 74.9799 29.1554 74.916C28.5498 74.8685 27.8914 74.567 27.1639 74.3444C26.7987 74.235 26.4099 74.1561 26.0057 74.1808C25.5988 74.2011 25.1742 74.3071 24.7135 74.3381C24.2588 74.3652 23.7683 74.3032 23.3929 74.007C23.3006 73.9344 23.2004 73.842 23.1609 73.6837C23.1419 73.6048 23.1563 73.5075 23.1995 73.4388C23.2412 73.3691 23.2941 73.3265 23.3414 73.2926C23.5224 73.1731 23.689 73.0724 23.8602 72.9703C24.5395 72.571 25.1849 72.2777 25.7371 72.0657C26.2897 71.8537 26.7495 71.723 27.0692 71.6461C27.3894 71.5691 27.5703 71.5459 27.5736 71.5609C27.5843 71.603 26.8762 71.7734 25.7988 72.2317C25.2615 72.4626 24.6332 72.768 23.9706 73.1716C23.8073 73.2718 23.6328 73.3817 23.4728 73.4901C23.3971 73.5472 23.3776 73.5835 23.3892 73.629C23.4008 73.6827 23.4588 73.7549 23.5349 73.8091C23.8421 74.0501 24.2732 74.112 24.6996 74.0864C25.1306 74.0583 25.5594 73.9538 25.9946 73.9339C26.4335 73.9107 26.853 74.0022 27.227 74.1212C27.9759 74.3657 28.6051 74.6735 29.1748 74.7388C29.7419 74.8211 30.2091 74.7224 30.4912 74.5728C30.7784 74.4271 30.8935 74.2713 30.9111 74.2902Z" fill="#EB996E"/>
</g>
</g>
<g id="Group_367">
<path id="Vector_142" d="M53.7279 84.0558C53.6671 84.0728 53.4207 83.2142 53.3924 82.1174C53.359 81.0202 53.5572 80.149 53.6189 80.1616C53.6889 80.1727 53.6012 81.041 53.6342 82.1102C53.6611 83.1788 53.797 84.0408 53.7279 84.0558Z" fill="#EB996E"/>
</g>
</g>
<g id="Group_368">
<path id="Vector_143" d="M71.8741 70.7981L65.9888 77.7159C65.9888 77.7159 62.8456 101.604 62.621 103.477C62.3965 105.351 61.7998 111.351 61.7998 112.991C61.7998 114.63 60.495 126.36 60.495 126.36C60.495 126.36 85.4656 131.768 89.6435 126.36L88.3438 116.317L89.475 91.4025C89.475 91.4025 91.3477 74.1096 82.6051 70.0958C82.6051 70.0958 77.0779 73.5714 71.8741 70.7981Z" fill="#F55656"/>
<path id="Vector_144" d="M86.6139 72.5482C86.6139 72.5482 84.8911 70.7739 79.3923 72.2598C73.5969 73.826 70.5387 79.4844 71.9766 95.5044C73.1621 108.714 78.171 110.615 78.171 110.615C78.171 110.615 75.4274 90.689 75.8988 82.3536C76.4941 71.8251 86.6135 74.4465 86.6135 74.4465C88.0551 73.9601 86.6139 72.5482 86.6139 72.5482Z" fill="#263238"/>
<path id="Vector_145" d="M71.8741 70.7981L66.7868 72.2598L55.3436 79.5672L58.6023 90.3609L65.3219 89.5933L71.8741 70.7981Z" fill="#F55656"/>
<g id="Group_369">
<path id="Vector_146" d="M65.2542 78.2919C65.3205 78.2982 65.031 82.1571 64.6078 86.9095C64.1842 91.6634 63.787 95.5107 63.7206 95.5044C63.6543 95.4981 63.9438 91.6401 64.3675 86.8863C64.7906 82.1334 65.1878 78.2856 65.2542 78.2919Z" fill="#263238"/>
</g>
<path id="Vector_147" d="M88.5465 111.836C88.5465 111.836 86.9211 117.282 81.1791 108.29C75.4376 99.2985 76.2454 103.32 76.2454 103.32L75.0687 104.78C75.0687 104.78 81.3838 119.618 88.4695 117.292L88.5465 111.836Z" fill="#263238"/>
<path id="Vector_148" opacity="0.3" d="M65.0227 80.8876L60.4945 90.1446L64.2362 89.7172L65.0227 80.8876Z" fill="black"/>
<g id="Group_370" opacity="0.3">
<path id="Vector_149" d="M62.9463 105.467C66.2648 109.24 70.2167 112.406 74.5681 114.777C76.3944 115.771 78.4105 116.647 80.4539 116.375C82.6983 116.075 84.623 114.377 85.6832 112.292C86.7439 110.207 86.5917 109.201 86.8446 106.856C87.123 104.272 87.1239 100.823 87.2543 98.466C87.2775 98.0483 87.2849 97.5643 87.2849 97.1059C87.2845 96.0823 87.9257 95.1811 88.8658 94.8863C88.8658 94.8863 87.497 94.2145 86.5797 94.3505C85.6623 94.4865 84.9677 95.2837 84.4875 96.1099C81.942 100.489 83.0505 106.91 78.1919 109.637C76.6069 110.526 74.7579 110.736 72.9817 110.434C69.0061 109.757 65.9618 107.03 63.0298 104.373" fill="black"/>
</g>
<path id="Vector_150" d="M68.4396 96.4036C69.6558 96.4036 70.6417 93.3086 70.6417 89.4907C70.6417 85.6727 69.6558 82.5777 68.4396 82.5777C67.2234 82.5777 66.2374 85.6727 66.2374 89.4907C66.2374 93.3086 67.2234 96.4036 68.4396 96.4036Z" fill="#EFEBFF"/>
</g>
<g id="Group_371">
<g id="Group_372">
<path id="Vector_151" d="M69.6178 209.699L70.1231 221.078C70.1231 221.078 59.2047 225.436 59.1017 227.548L80.2879 227.318L80.1984 209.555L69.6178 209.699Z" fill="#F55656"/>
<g id="Group_373" opacity="0.6">
<path id="Vector_152" d="M76.6643 220.05C77.0754 220.162 77.3635 220.64 77.2726 221.073C77.1817 221.506 76.7186 221.816 76.3052 221.711C75.8922 221.606 75.5294 221.044 75.6662 220.624C75.8031 220.204 76.3659 219.872 76.7427 220.077" fill="white"/>
</g>
<path id="Vector_153" opacity="0.6" d="M80.2877 227.319L80.2789 225.547L59.9269 226.418C59.9269 226.418 58.9878 226.856 59.1015 227.548L80.2877 227.319Z" fill="white"/>
<g id="Group_374">
<path id="Vector_154" d="M69.7781 220.97C69.7827 221.078 70.3001 221.121 70.8128 221.462C71.3339 221.79 71.6007 222.255 71.6958 222.211C71.7909 222.188 71.6304 221.545 71.0031 221.143C70.379 220.735 69.7549 220.871 69.7781 220.97Z" fill="#263238"/>
</g>
<g id="Group_375">
<path id="Vector_155" d="M67.5658 221.952C67.543 222.057 67.9931 222.236 68.349 222.688C68.7179 223.13 68.8111 223.622 68.9142 223.617C69.0116 223.633 69.077 223 68.6242 222.446C68.1759 221.888 67.5667 221.85 67.5658 221.952Z" fill="#263238"/>
</g>
<g id="Group_376">
<path id="Vector_156" d="M66.331 224.74C66.4252 224.762 66.5639 224.221 66.2925 223.633C66.0248 223.043 65.5348 222.815 65.4921 222.905C65.4345 222.995 65.7519 223.308 65.9677 223.795C66.1941 224.276 66.228 224.731 66.331 224.74Z" fill="#263238"/>
</g>
<g id="Group_377">
<path id="Vector_157" d="M69.9391 218.363C69.9837 218.461 70.4565 218.307 71.0416 218.342C71.6276 218.365 72.0847 218.565 72.1376 218.471C72.1965 218.392 71.7483 217.998 71.0588 217.967C70.3693 217.93 69.8872 218.279 69.9391 218.363Z" fill="#263238"/>
</g>
</g>
<path id="Vector_158" opacity="0.3" d="M69.7201 211.953L69.8078 213.981L80.2195 213.769L80.2144 211.941L69.7201 211.953Z" fill="black"/>
<g id="Group_378">
<path id="Vector_159" d="M69.8775 216.065C69.877 216.11 70.2862 216.172 70.9386 216.048C71.2634 215.986 71.6453 215.871 72.0453 215.681C72.2452 215.585 72.4489 215.471 72.6512 215.336C72.7482 215.27 72.8633 215.203 72.9691 215.073C73.0828 214.959 73.1449 214.672 73.0108 214.498C72.9004 214.33 72.7078 214.258 72.5552 214.256C72.3988 214.253 72.2726 214.287 72.158 214.318C71.9228 214.38 71.7024 214.464 71.5005 214.561C71.0978 214.758 70.7711 215.004 70.5289 215.242C70.0422 215.722 69.8784 216.127 69.9141 216.147C69.9614 216.182 70.1971 215.842 70.6936 215.444C70.9409 215.247 71.2578 215.042 71.6346 214.878C71.8235 214.797 72.0267 214.728 72.242 214.675C72.4656 214.611 72.6568 214.608 72.7153 214.711C72.7366 214.751 72.7394 214.766 72.693 214.835C72.6452 214.899 72.5547 214.962 72.4591 215.028C72.2731 215.158 72.0856 215.271 71.9019 215.368C71.5344 215.564 71.1822 215.698 70.8802 215.789C70.2746 215.973 69.8751 216.007 69.8775 216.065Z" fill="#263238"/>
</g>
<g id="Group_379">
<path id="Vector_160" d="M70.0138 216.219C70.0505 216.235 70.2519 215.846 70.283 215.147C70.2973 214.8 70.2588 214.38 70.1261 213.937C70.0588 213.716 69.9679 213.49 69.8491 213.268C69.7229 213.051 69.5684 212.76 69.1666 212.717C68.9568 212.711 68.7842 212.883 68.7262 213.03C68.6576 213.18 68.645 213.309 68.6214 213.437C68.5852 213.696 68.5921 213.949 68.6279 214.183C68.6993 214.652 68.8877 215.042 69.0923 215.321C69.5122 215.889 69.9452 216.014 69.9535 215.977C69.9874 215.922 69.6245 215.718 69.3025 215.171C69.1438 214.901 69.0014 214.545 68.9564 214.135C68.9336 213.93 68.9346 213.713 68.9694 213.495C69 213.26 69.0826 213.069 69.1675 213.092C69.2728 213.089 69.4538 213.264 69.5424 213.451C69.6533 213.648 69.7419 213.85 69.8111 214.048C69.9479 214.446 70.0097 214.828 70.0277 215.15C70.0639 215.798 69.9572 216.203 70.0138 216.219Z" fill="#263238"/>
</g>
</g>
<g id="Group_380">
<g id="Group_381">
<path id="Vector_161" d="M90.1454 202.79L98.7117 209.854C98.7117 209.854 94.7051 221.31 96.1662 222.776L109.894 205.942L96.9792 194.363L90.1454 202.79Z" fill="#F55656"/>
<g id="Group_382" opacity="0.6">
<path id="Vector_162" d="M102.258 204.029C102.609 203.779 103.143 203.865 103.397 204.221C103.651 204.577 103.572 205.144 103.225 205.401C102.878 205.657 102.233 205.574 102.019 205.191C101.804 204.808 101.933 204.146 102.329 203.984" fill="white"/>
</g>
<path id="Vector_163" opacity="0.6" d="M109.894 205.942L108.606 204.788L95.8892 221.385C95.8892 221.385 95.5904 222.412 96.1658 222.776L109.894 205.942Z" fill="white"/>
<g id="Group_383">
<path id="Vector_164" d="M98.4074 210.055C98.4886 210.122 98.8593 209.742 99.4426 209.563C100.021 209.367 100.533 209.462 100.563 209.359C100.61 209.269 100.038 208.974 99.3359 209.204C98.6315 209.428 98.3202 210.008 98.4074 210.055Z" fill="#263238"/>
</g>
<g id="Group_384">
<path id="Vector_165" d="M97.6673 212.441C97.7286 212.528 98.1527 212.291 98.7136 212.307C99.2751 212.307 99.6927 212.556 99.7563 212.471C99.8319 212.404 99.4166 211.938 98.7187 211.931C98.0214 211.918 97.594 212.373 97.6673 212.441Z" fill="#263238"/>
</g>
<g id="Group_385">
<path id="Vector_166" d="M98.8755 215.242C98.9535 215.182 98.6528 214.718 98.0491 214.546C97.4464 214.369 96.9601 214.606 96.9972 214.699C97.0241 214.803 97.4594 214.759 97.9531 214.908C98.4496 215.045 98.8013 215.317 98.8755 215.242Z" fill="#263238"/>
</g>
<g id="Group_386">
<path id="Vector_167" d="M96.6261 208.219C96.7258 208.248 96.9249 207.774 97.3341 207.336C97.7346 206.89 98.1791 206.661 98.1466 206.558C98.1285 206.46 97.5489 206.554 97.0738 207.077C96.595 207.596 96.5314 208.204 96.6261 208.219Z" fill="#263238"/>
</g>
</g>
<path id="Vector_168" opacity="0.3" d="M91.8436 204.187L93.3688 205.448L100.043 197.11L98.7173 195.915L91.8436 204.187Z" fill="black"/>
<g id="Group_387">
<path id="Vector_169" d="M94.9232 206.76C94.9553 206.79 95.2689 206.508 95.6067 205.913C95.7747 205.617 95.9417 205.24 96.0661 204.8C96.1278 204.581 96.1793 204.345 96.2145 204.098C96.2299 203.977 96.2568 203.843 96.2322 203.674C96.2243 203.51 96.0577 203.273 95.8438 203.265C95.6494 203.241 95.4717 203.346 95.3701 203.465C95.2652 203.586 95.2072 203.708 95.1543 203.819C95.0448 204.045 94.9613 204.274 94.8991 204.496C94.7771 204.942 94.7414 205.361 94.7543 205.707C94.7827 206.406 94.9683 206.8 95.0063 206.786C95.0629 206.772 94.971 206.363 95.0086 205.711C95.0276 205.387 95.087 205.003 95.2156 204.599C95.281 204.398 95.3636 204.191 95.467 203.988C95.5677 203.77 95.6902 203.617 95.8035 203.639C95.8461 203.648 95.8591 203.656 95.8786 203.738C95.8935 203.817 95.8795 203.93 95.8647 204.048C95.8364 204.279 95.7951 204.501 95.7455 204.71C95.6457 205.128 95.5121 205.493 95.3803 205.791C95.1167 206.387 94.8792 206.724 94.9232 206.76Z" fill="#263238"/>
</g>
<g id="Group_388">
<path id="Vector_170" d="M95.1232 206.753C95.1589 206.735 95.0095 206.321 94.5237 205.838C94.2819 205.6 93.9529 205.355 93.5451 205.168C93.3409 205.076 93.1178 204.999 92.8793 204.947C92.6394 204.904 92.3276 204.836 92.0329 205.123C91.8909 205.284 91.903 205.533 91.9712 205.675C92.0348 205.828 92.1197 205.922 92.1967 206.025C92.36 206.223 92.548 206.383 92.7405 206.508C93.127 206.76 93.5326 206.867 93.869 206.889C94.5557 206.931 94.9292 206.672 94.9083 206.641C94.8912 206.579 94.5051 206.73 93.8982 206.625C93.5989 206.574 93.2477 206.452 92.9215 206.218C92.7586 206.102 92.6018 205.959 92.4672 205.789C92.3174 205.61 92.2334 205.42 92.3057 205.369C92.3726 205.284 92.618 205.257 92.811 205.309C93.0263 205.351 93.2305 205.413 93.4194 205.489C93.797 205.642 94.114 205.844 94.3589 206.041C94.8513 206.438 95.0749 206.787 95.1232 206.753Z" fill="#263238"/>
</g>
</g>
<g id="Group_389">
<path id="Vector_171" d="M66.3928 161.557C66.3928 161.557 66.9593 134.38 66.3928 134.38C65.8262 134.38 61.8098 131.988 61.8098 131.988L56.7908 172.379C56.7908 172.379 56.3383 176.913 61.7175 180.109C67.0967 183.304 91.149 205.611 91.149 205.611L99.2876 195.272C99.2876 195.272 83.461 178.065 76.9956 172.379C71.9376 167.93 66.3928 161.557 66.3928 161.557Z" fill="#263238"/>
<g id="Group_390">
<path id="Vector_172" d="M81.1373 155.226L81.6853 150.922C81.6853 150.922 85.6502 142.225 86.2162 138.5C86.7828 134.774 86.4088 126.762 86.4088 126.762H61.3765C61.3765 126.762 61.4841 156.24 64.5048 164.511C64.5048 164.511 66.0383 180.339 66.2638 181.666C66.7422 184.48 68.4102 213.298 68.4102 213.298L81.0324 212.818C81.0324 212.818 82.1284 186.325 81.2524 178.804C80.8185 175.079 80.613 171.11 80.5188 167.827C80.3986 163.615 80.6051 159.403 81.1373 155.226Z" fill="#263238"/>
<g id="Group_391">
<path id="Vector_173" d="M62.0608 135.358C62.065 135.358 62.0706 135.402 62.0771 135.488C62.0831 135.589 62.091 135.714 62.1003 135.869C62.1165 136.224 62.1383 136.714 62.1666 137.335C62.2139 138.609 62.304 140.451 62.4297 142.725C62.6812 147.275 63.1484 153.552 63.8375 160.468C64.5251 167.386 65.2643 173.636 65.7988 178.16C66.0624 180.408 66.2767 182.233 66.4275 183.518C66.4957 184.136 66.5496 184.623 66.5881 184.976C66.6025 185.131 66.6145 185.256 66.6238 185.356C66.6303 185.442 66.6321 185.486 66.628 185.487C66.6238 185.487 66.614 185.444 66.5997 185.359C66.5839 185.26 66.5644 185.136 66.5403 184.982C66.4906 184.631 66.422 184.146 66.3347 183.53C66.1658 182.248 65.9255 180.426 65.6299 178.182C65.0522 173.664 64.2857 167.415 63.5976 160.493C62.9076 153.574 62.4673 147.289 62.2594 142.734C62.1555 140.457 62.0914 138.613 62.0729 137.338C62.0641 136.715 62.0571 136.225 62.052 135.87C62.052 135.714 62.0525 135.589 62.0525 135.488C62.0539 135.403 62.0566 135.359 62.0608 135.358Z" fill="#455A64"/>
</g>
<g id="Group_392">
<path id="Vector_174" d="M80.4942 170.25C80.5025 170.249 80.5276 170.396 80.5675 170.677C80.6078 170.98 80.6621 171.391 80.7308 171.908C80.857 172.979 81.0143 174.533 81.1572 176.457C81.4551 180.304 81.6801 185.632 81.7641 191.519C81.8305 197.409 81.7414 202.741 81.5405 206.596C81.4458 208.523 81.328 210.081 81.2282 211.155C81.1725 211.674 81.1284 212.086 81.0955 212.39C81.0626 212.672 81.0412 212.819 81.0329 212.818C81.0245 212.817 81.0296 212.668 81.0468 212.385C81.0681 212.08 81.0974 211.667 81.134 211.146C81.2045 210.071 81.2969 208.514 81.3693 206.588C81.5261 202.736 81.5883 197.408 81.5219 191.523C81.4379 185.64 81.2403 180.316 80.9865 176.47C80.8654 174.546 80.734 172.992 80.6366 171.919C80.587 171.399 80.5475 170.988 80.5188 170.683C80.4946 170.4 80.4858 170.251 80.4942 170.25Z" fill="#455A64"/>
</g>
</g>
</g>
<path id="Vector_175" d="M85.4177 71.9408C85.4177 71.9408 89.5148 73.0811 90.3867 79.4491C91.259 85.8171 89.6429 87.6364 89.6429 87.6364C89.6429 87.6364 90.3083 75.7808 85.2173 74.1633L85.4177 72.1726" fill="#263238"/>
<g id="Group_393">
<path id="Vector_176" d="M57.504 92.7417L36.3525 92.3148L36.5994 93.3845L57.4014 93.7034L57.504 92.7417Z" fill="#263238"/>
<g id="Group_394">
<path id="Vector_177" d="M83.1464 73.9402C82.359 73.7219 81.5247 73.8279 80.7735 74.158C79.059 74.9106 75.9233 77.0741 75.6996 83.1788C75.3391 93.0403 75.3391 93.0403 75.3391 93.0403L88.8656 94.8863C88.8656 94.8863 90.014 75.8452 83.1464 73.9402Z" fill="#F55656"/>
<path id="Vector_178" d="M58.2575 94.8321L75.4055 100.212L75.6616 93.0093L85.9304 94.5698L85.3579 106.281C85.2377 109.716 82.9288 112.643 79.7203 113.428C77.9255 113.867 76.0384 113.583 74.4362 112.633L56.2122 101.825L58.2575 94.8321Z" fill="#FFBE9D"/>
<g id="Group_395">
<path id="Vector_179" d="M88.8657 94.8863C88.8629 94.8829 88.8587 94.8263 88.8536 94.7179C88.8485 94.5969 88.842 94.4401 88.8341 94.2426C88.8197 93.8128 88.7989 93.2073 88.7729 92.4353C88.7246 90.8623 88.6559 88.6146 88.5715 85.8437C88.533 84.4566 88.4908 82.9392 88.4458 81.3111C88.4351 80.904 88.4239 80.4897 88.4128 80.0691C88.3924 79.8625 88.3715 79.6543 88.3506 79.4448C88.3089 79.2381 88.2782 79.0271 88.2272 78.8194C88.0217 77.9894 87.6421 77.1816 87.109 76.4682C86.0418 75.0592 84.324 73.9862 82.4291 73.9504C81.4867 73.9252 80.5415 74.2263 79.7142 74.7592C78.8832 75.2891 78.1807 76.0505 77.6183 76.9159C76.7994 78.1636 76.3395 79.6016 76.0718 81.0274C75.805 82.4591 75.7187 83.8893 75.6523 85.276C75.5767 88.0551 75.5057 90.6653 75.4408 93.0432L75.3521 92.9353C79.3982 93.5113 82.7613 93.9899 85.1295 94.3268C86.303 94.4986 87.2291 94.6341 87.8787 94.7295C88.1868 94.7764 88.429 94.8132 88.6082 94.8403C88.7747 94.8665 88.8624 94.8824 88.8657 94.8863C88.8694 94.8907 88.7886 94.8829 88.629 94.865C88.4541 94.8437 88.2179 94.8156 87.9173 94.7793C87.2718 94.6975 86.3522 94.5814 85.1866 94.4338C82.7979 94.1216 79.4066 93.6787 75.3257 93.1454L75.2347 93.1332L75.2371 93.0369C75.2932 90.659 75.334 88.0479 75.4208 85.2634C75.4839 83.8734 75.5674 82.432 75.8365 80.9786C76.1057 79.5319 76.5752 78.0571 77.4174 76.7736C77.996 75.8835 78.7212 75.0965 79.5875 74.5447C80.4469 73.9906 81.4458 73.674 82.4318 73.7026C84.415 73.7457 86.1819 74.8622 87.2834 76.3239C87.8333 77.0649 88.2235 77.9037 88.4323 78.7643C88.4843 78.9792 88.5154 79.1974 88.5571 79.4119C88.5775 79.6297 88.5979 79.846 88.6184 80.0604C88.6272 80.4858 88.636 80.9045 88.6448 81.3164C88.6768 82.961 88.7065 84.4943 88.7339 85.8955C88.7798 88.6708 88.8174 90.9223 88.8439 92.4982C88.8541 93.2586 88.862 93.8554 88.8675 94.2784C88.8685 94.4686 88.8694 94.6196 88.8698 94.7363C88.8703 94.8389 88.8685 94.8897 88.8657 94.8863Z" fill="#263238"/>
</g>
</g>
<path id="Vector_180" d="M58.6023 95.0407L54.4829 91.8632C53.7317 91.2839 52.5601 91.4015 51.6298 91.3139C49.7845 91.1406 46.7411 92.3051 46.6251 92.505L47.8686 93.5418L39.8618 93.2852C39.8618 93.2852 40.5504 95.0291 42.7892 95.2087C42.7892 95.2087 43.0476 97.0943 45.3718 97.4539C45.3718 97.4539 45.9746 98.9805 47.2659 99.4296C47.2659 99.4296 47.5243 101.136 49.5905 101.046L56.6029 101.875L58.6023 95.0407Z" fill="#FFBE9D"/>
<g id="Group_396">
<path id="Vector_181" d="M47.7999 95.5199C47.7962 95.5896 46.6608 95.576 45.2642 95.4904C43.8675 95.4047 42.7386 95.2788 42.7423 95.2091C42.746 95.1399 43.8814 95.153 45.2781 95.2387C46.6747 95.3243 47.8036 95.4502 47.7999 95.5199Z" fill="#EB996E"/>
</g>
<g id="Group_397">
<path id="Vector_182" d="M49.8234 97.5294C49.8234 97.5991 48.8309 97.6552 47.6064 97.6552C46.3819 97.6552 45.3894 97.5986 45.3894 97.5294C45.3894 97.4597 46.3819 97.4036 47.6064 97.4036C48.8304 97.4031 49.8234 97.4597 49.8234 97.5294Z" fill="#EB996E"/>
</g>
<g id="Group_398">
<path id="Vector_183" d="M52.0014 99.4296C52.0014 99.4993 51.0089 99.5554 49.7844 99.5554C48.5599 99.5554 47.5674 99.4988 47.5674 99.4296C47.5674 99.3604 48.5599 99.3038 49.7844 99.3038C51.0089 99.3038 52.0014 99.3599 52.0014 99.4296Z" fill="#EB996E"/>
</g>
<g id="Group_399">
<path id="Vector_184" d="M76.5372 103.864C76.4769 103.891 76.1085 103.115 75.7744 102.11C75.4389 101.104 75.2668 100.258 75.3299 100.239C75.3953 100.22 75.6695 101.029 76.0027 102.027C76.3344 103.025 76.6003 103.837 76.5372 103.864Z" fill="#EB996E"/>
</g>
<g id="Group_400">
<path id="Vector_185" d="M77.7798 103.17C77.7246 103.212 77.1706 102.513 76.4852 101.656C75.8008 100.798 75.2427 100.104 75.2918 100.055C75.3392 100.008 75.9809 100.63 76.6708 101.495C77.3617 102.359 77.8327 103.13 77.7798 103.17Z" fill="#EB996E"/>
</g>
</g>
</g>
</g>
</svg>
